<svg width="500" height="500" viewBox="0 0 500 500" fill="none" xmlns="http://www.w3.org/2000/svg">
<path d="M215.59 9.08C215.59 9.08 298.77 -1.5 365 58.75C431.23 119 450.49 214.09 468.14 290.75C485.79 367.41 451.45 433.95 386.57 453.54C321.69 473.13 292.73 417 212.1 397C131.47 377 107.1 383.79 49.8001 323.24C-7.49987 262.69 4.00013 151.77 74.5901 83.29C145.18 14.81 215.59 9.08 215.59 9.08Z" fill="#F9D48E"/>
<path opacity="0.75" d="M215.59 9.08C215.59 9.08 298.77 -1.5 365 58.75C431.23 119 450.49 214.09 468.14 290.75C485.79 367.41 451.45 433.95 386.57 453.54C321.69 473.13 292.73 417 212.1 397C131.47 377 107.1 383.79 49.8001 323.24C-7.49987 262.69 4.00013 151.77 74.5901 83.29C145.18 14.81 215.59 9.08 215.59 9.08Z" fill="white"/>
<path d="M456.62 342.75L47.2002 313.91" stroke="#263238" stroke-miterlimit="10"/>
<path d="M68.21 315.14V269.07" stroke="#263238" stroke-miterlimit="10"/>
<path d="M106.91 317.6V272.76" stroke="#263238" stroke-miterlimit="10"/>
<path d="M151.75 321.28V275.22" stroke="#263238" stroke-miterlimit="10"/>
<path d="M201.51 324.97V276.44" stroke="#263238" stroke-miterlimit="10"/>
<path d="M253.1 328.04V276.44" stroke="#263238" stroke-miterlimit="10"/>
<path d="M304.7 330.5V281.36" stroke="#263238" stroke-miterlimit="10"/>
<path d="M359.69 337.53V284.43" stroke="#263238" stroke-miterlimit="10"/>
<path d="M422.02 339.71V288.73" stroke="#263238" stroke-miterlimit="10"/>
<path d="M456.62 349.93L45.8799 319.45" stroke="#263238" stroke-miterlimit="10"/>
<path d="M443.73 470.57L456 472" stroke="#263238" stroke-miterlimit="10"/>
<path d="M44 424L430.01 468.97" stroke="#263238" stroke-miterlimit="10"/>
<path d="M459 278.69L58.6201 261.52V43.32L459 26.15V278.69Z" fill="#263238"/>
<path d="M449.12 266.8L66.04 251.87V52.98L449.12 38.04V266.8Z" stroke="#F9D48E" stroke-miterlimit="10"/>
<path d="M190.47 75.53L84.4699 78.53C83.8393 78.5112 83.219 78.3656 82.6459 78.1019C82.0728 77.8383 81.5586 77.462 81.134 76.9954C80.7094 76.5288 80.3831 75.9815 80.1745 75.3862C79.9659 74.7908 79.8793 74.1595 79.9199 73.53C79.9199 70.7 81.9199 68.34 84.4699 68.26L190.47 64.79C191.14 64.7961 191.803 64.937 192.418 65.2043C193.032 65.4716 193.587 65.8598 194.049 66.3459C194.511 66.8319 194.87 67.4059 195.106 68.0337C195.341 68.6614 195.448 69.3301 195.42 70C195.47 71.383 194.983 72.7317 194.06 73.7629C193.137 74.7941 191.85 75.4274 190.47 75.53Z" fill="#808080"/>
<path d="M126.81 72.15C126.848 71.5058 126.755 70.8606 126.536 70.2533C126.318 69.646 125.979 69.0892 125.54 68.6164C125.101 68.1436 124.571 67.7646 123.981 67.5023C123.391 67.2399 122.755 67.0997 122.11 67.09L84.4796 68.32C81.9696 68.4 79.9296 70.76 79.9296 73.59C79.8891 74.2195 79.9757 74.8508 80.1843 75.4462C80.3929 76.0415 80.7192 76.5888 81.1438 77.0554C81.5684 77.522 82.0825 77.8983 82.6556 78.1619C83.2287 78.4256 83.8491 78.5712 84.4796 78.59L122.11 77.5C123.432 77.3877 124.66 76.768 125.536 75.7708C126.412 74.7736 126.869 73.4761 126.81 72.15Z" fill="#F9D48E"/>
<path d="M190.47 96.4L84.4703 98.61C81.9603 98.67 79.9203 96.42 79.9203 93.61C79.8558 92.3192 80.2935 91.0535 81.1418 90.0785C81.9901 89.1034 83.183 88.4947 84.4703 88.38L190.47 85.74C191.142 85.7461 191.805 85.8872 192.42 86.1552C193.036 86.4231 193.591 86.8122 194.053 87.2993C194.515 87.7865 194.874 88.3617 195.109 88.9906C195.344 89.6195 195.45 90.2893 195.42 90.96C195.459 92.331 194.966 93.6639 194.043 94.6784C193.119 95.6929 191.839 96.31 190.47 96.4Z" fill="#808080"/>
<path d="M153.32 91.91C153.355 91.2546 153.258 90.5989 153.034 89.9819C152.81 89.365 152.464 88.7993 152.017 88.3188C151.57 87.8382 151.031 87.4525 150.432 87.1847C149.833 86.9169 149.186 86.7725 148.53 86.76L84.5299 88.36C83.2426 88.4747 82.0497 89.0834 81.2014 90.0585C80.3531 91.0335 79.9153 92.2992 79.9799 93.59C79.9799 96.42 81.9799 98.67 84.5299 98.59L148.58 97.25C149.906 97.1427 151.139 96.5273 152.023 95.5322C152.906 94.5372 153.371 93.2395 153.32 91.91Z" fill="#F9D48E"/>
<path d="M190.47 117.26L84.4696 118.65C83.8372 118.621 83.217 118.466 82.6448 118.195C82.0727 117.924 81.5601 117.542 81.1368 117.071C80.7135 116.6 80.3879 116.05 80.179 115.453C79.97 114.855 79.8819 114.222 79.9196 113.59C79.8657 112.306 80.3083 111.05 81.1555 110.084C82.0027 109.118 83.1896 108.515 84.4696 108.4L190.47 106.58C191.143 106.594 191.807 106.742 192.422 107.016C193.037 107.29 193.591 107.684 194.052 108.175C194.513 108.665 194.872 109.243 195.106 109.874C195.341 110.506 195.448 111.177 195.42 111.85C195.466 113.22 194.974 114.554 194.049 115.565C193.123 116.576 191.838 117.185 190.47 117.26Z" fill="#808080"/>
<path d="M172 112.2C172.03 111.537 171.927 110.874 171.698 110.251C171.468 109.628 171.117 109.057 170.665 108.571C170.212 108.085 169.668 107.694 169.063 107.421C168.458 107.148 167.804 106.998 167.14 106.98L84.4804 108.4C83.2003 108.515 82.0135 109.118 81.1662 110.084C80.319 111.05 79.8764 112.306 79.9304 113.59C79.8926 114.222 79.9808 114.855 80.1897 115.453C80.3987 116.05 80.7242 116.6 81.1475 117.071C81.5708 117.542 82.0834 117.924 82.6556 118.195C83.2277 118.466 83.848 118.621 84.4804 118.65L167.14 117.57C168.491 117.485 169.754 116.876 170.662 115.873C171.57 114.87 172.05 113.552 172 112.2Z" fill="#F9D48E"/>
<path d="M190.47 138.13L84.4701 138.69C83.8368 138.656 83.2165 138.496 82.6448 138.222C82.0731 137.947 81.5613 137.562 81.1386 137.089C80.7159 136.617 80.3907 136.065 80.1816 135.466C79.9725 134.867 79.8836 134.233 79.9201 133.6C79.8512 132.315 80.2894 131.055 81.1403 130.09C81.9912 129.125 83.1869 128.532 84.4701 128.44L190.47 127.44C191.144 127.459 191.808 127.612 192.423 127.89C193.037 128.167 193.591 128.564 194.051 129.057C194.512 129.55 194.87 130.129 195.105 130.761C195.34 131.394 195.447 132.066 195.42 132.74C195.472 134.109 194.981 135.444 194.054 136.453C193.127 137.462 191.839 138.065 190.47 138.13Z" fill="#F9D48E"/>
<path d="M217.101 74.76L202.581 75.18C201.906 75.1806 201.238 75.0446 200.617 74.7803C199.997 74.516 199.436 74.1288 198.969 73.6421C198.502 73.1553 198.138 72.579 197.899 71.948C197.661 71.3169 197.552 70.6441 197.581 69.97C197.544 68.5833 198.043 67.2356 198.974 66.2075C199.905 65.1794 201.197 64.5499 202.581 64.45L217.101 64C217.782 63.9924 218.458 64.1242 219.087 64.3873C219.715 64.6504 220.284 65.0393 220.757 65.53C221.23 66.0208 221.597 66.603 221.837 67.241C222.077 67.879 222.183 68.5592 222.151 69.24C222.18 70.6328 221.671 71.9832 220.731 73.011C219.79 74.0389 218.49 74.6652 217.101 74.76Z" fill="#F9D48E"/>
<path d="M217.1 95.84L202.58 96.14C201.902 96.1408 201.231 96.0037 200.607 95.7369C199.984 95.4702 199.421 95.0794 198.954 94.5883C198.486 94.0972 198.123 93.516 197.887 92.8803C197.651 92.2445 197.547 91.5673 197.58 90.89C197.541 89.5067 198.041 88.1623 198.974 87.1401C199.906 86.1178 201.199 85.4975 202.58 85.41L217.1 85.05C217.782 85.0535 218.456 85.1942 219.083 85.4637C219.709 85.7332 220.274 86.126 220.746 86.6187C221.217 87.1114 221.584 87.6939 221.825 88.3315C222.067 88.9691 222.177 89.6488 222.15 90.33C222.189 91.7245 221.684 93.0793 220.741 94.1077C219.799 95.1361 218.493 95.7574 217.1 95.84Z" fill="#F9D48E"/>
<path d="M217.1 116.91L202.58 117.1C201.902 117.089 201.233 116.942 200.613 116.668C199.992 116.395 199.433 116 198.967 115.507C198.501 115.014 198.139 114.433 197.9 113.799C197.662 113.164 197.553 112.488 197.58 111.81C197.539 110.43 198.039 109.089 198.973 108.072C199.907 107.056 201.202 106.445 202.58 106.37L217.1 106.12C217.783 106.132 218.457 106.279 219.082 106.554C219.707 106.829 220.271 107.225 220.741 107.721C221.211 108.216 221.578 108.8 221.82 109.438C222.062 110.077 222.174 110.758 222.15 111.44C222.194 112.832 221.689 114.185 220.744 115.208C219.8 116.231 218.491 116.842 217.1 116.91Z" fill="#F9D48E"/>
<path d="M217.1 138L202.58 138.07C201.9 138.052 201.231 137.899 200.611 137.621C199.991 137.343 199.432 136.944 198.967 136.448C198.502 135.953 198.14 135.37 197.902 134.733C197.664 134.097 197.554 133.419 197.58 132.74C197.536 131.363 198.037 130.025 198.972 129.015C199.908 128.004 201.204 127.402 202.58 127.34L217.1 127.21C217.784 127.225 218.458 127.377 219.084 127.655C219.709 127.933 220.273 128.332 220.743 128.83C221.212 129.328 221.579 129.914 221.82 130.554C222.062 131.194 222.174 131.876 222.15 132.56C222.193 133.949 221.687 135.299 220.742 136.317C219.797 137.335 218.488 137.94 217.1 138Z" fill="#F9D48E"/>
<path d="M85.3105 62.94L102.371 62.35" stroke="white" stroke-miterlimit="10"/>
<path d="M85.3105 83.96L102.371 83.51" stroke="white" stroke-miterlimit="10"/>
<path d="M85.3105 103.91L102.371 103.59" stroke="white" stroke-miterlimit="10"/>
<path d="M85.3105 124.93L102.371 124.75" stroke="white" stroke-miterlimit="10"/>
<path d="M400.9 63.51L415.2 63.07" stroke="white" stroke-miterlimit="10"/>
<path d="M392.59 75.83L415.2 75.23" stroke="white" stroke-miterlimit="10"/>
<path d="M400.9 87.7L415.2 87.38" stroke="white" stroke-miterlimit="10"/>
<path d="M406.811 99.69L415.201 99.54" stroke="white" stroke-miterlimit="10"/>
<path d="M400.9 111.9L415.2 111.7" stroke="white" stroke-miterlimit="10"/>
<path d="M397.08 124.03L415.2 123.85" stroke="white" stroke-miterlimit="10"/>
<path d="M400.9 136.09L415.2 136.01" stroke="white" stroke-miterlimit="10"/>
<path d="M393.97 148.2L415.2 148.17" stroke="white" stroke-miterlimit="10"/>
<path d="M400.9 160.28L415.2 160.32" stroke="white" stroke-miterlimit="10"/>
<path d="M419 63L423.34 62.87" stroke="white" stroke-miterlimit="10"/>
<path d="M419 75.13L423.34 75.01" stroke="white" stroke-miterlimit="10"/>
<path d="M419 87.3L423.34 87.2" stroke="white" stroke-miterlimit="10"/>
<path d="M419.07 99.47L423.29 99.39" stroke="white" stroke-miterlimit="10"/>
<path d="M419 111.64L423.34 111.58" stroke="white" stroke-miterlimit="10"/>
<path d="M419 123.82H423.25" stroke="white" stroke-miterlimit="10"/>
<path d="M419 136H423.34" stroke="white" stroke-miterlimit="10"/>
<path d="M418.92 148.16H423.29" stroke="white" stroke-miterlimit="10"/>
<path d="M419 160.33H423.34" stroke="white" stroke-miterlimit="10"/>
<path d="M427.53 62.69L434.96 62.46" stroke="white" stroke-miterlimit="10"/>
<path d="M427.53 74.9L434.96 74.7" stroke="white" stroke-miterlimit="10"/>
<path d="M427.53 87.11L434.96 86.94" stroke="white" stroke-miterlimit="10"/>
<path d="M427.72 99.31L434.96 99.18" stroke="white" stroke-miterlimit="10"/>
<path d="M427.53 111.52L434.96 111.42" stroke="white" stroke-miterlimit="10"/>
<path d="M427.69 123.73L434.96 123.66" stroke="white" stroke-miterlimit="10"/>
<path d="M427.53 135.94H434.96" stroke="white" stroke-miterlimit="10"/>
<path d="M427.47 148.15H435" stroke="white" stroke-miterlimit="10"/>
<path d="M427.53 160.36H434.96" stroke="white" stroke-miterlimit="10"/>
<path d="M237.09 150.58L382.51 150.48" stroke="#999999" stroke-miterlimit="10"/>
<path d="M237.09 141.33L382.51 140.73" stroke="#999999" stroke-miterlimit="10"/>
<path d="M237.09 132.07L382.51 130.98" stroke="#999999" stroke-miterlimit="10"/>
<path d="M383 169.71V125.71C383 125.71 379.59 121.38 365.52 122.18C351.6 122.98 348.26 135.28 333.52 142.44C318.78 149.6 312 138.05 300 138.11C288 138.17 282.15 151.45 273.54 156.48C264.93 161.51 257.36 155.83 247.13 157.06C244.257 157.386 241.547 158.561 239.345 160.435C237.144 162.309 235.551 164.796 234.77 167.58L234.63 168.82L383 169.71Z" fill="#F9D48E"/>
<path d="M383 169.71V145.55C378.19 145.29 368.21 146.09 357.61 154.92C347.01 163.75 328.1 159.09 322.54 157.06C313.69 153.82 303.54 153.66 293.45 160.06C283.36 166.46 275.16 165.84 265.81 165.79C259.2 165.79 251.53 167.79 247.66 168.9L383 169.71Z" fill="#808080"/>
<path d="M271.77 238.26L245.9 237.45C244.696 237.373 243.568 236.834 242.752 235.945C241.936 235.056 241.494 233.886 241.52 232.68C241.5 232.093 241.598 231.508 241.81 230.961C242.021 230.413 242.341 229.914 242.75 229.492C243.159 229.071 243.649 228.737 244.19 228.51C244.731 228.283 245.313 228.167 245.9 228.17L271.77 228.88C272.995 228.95 274.145 229.49 274.98 230.389C275.815 231.287 276.27 232.474 276.25 233.7C276.266 234.296 276.162 234.89 275.944 235.445C275.725 236.001 275.397 236.506 274.979 236.932C274.561 237.357 274.061 237.694 273.51 237.923C272.959 238.151 272.367 238.266 271.77 238.26Z" fill="#808080"/>
<path d="M324 239.88L297.14 239.05C295.902 238.978 294.74 238.432 293.894 237.525C293.049 236.618 292.585 235.42 292.6 234.18C292.585 233.577 292.692 232.978 292.914 232.418C293.137 231.857 293.47 231.348 293.893 230.919C294.317 230.491 294.823 230.152 295.381 229.924C295.939 229.695 296.537 229.582 297.14 229.59L324 230.33C325.259 230.389 326.447 230.934 327.313 231.849C328.18 232.764 328.659 233.979 328.65 235.24C328.662 235.854 328.55 236.463 328.321 237.032C328.091 237.602 327.749 238.118 327.315 238.552C326.88 238.985 326.363 239.326 325.793 239.555C325.223 239.783 324.614 239.894 324 239.88Z" fill="#808080"/>
<path d="M377.1 241.54L349.22 240.67C347.94 240.61 346.733 240.056 345.854 239.123C344.975 238.19 344.494 236.952 344.51 235.67C344.5 235.05 344.614 234.434 344.847 233.859C345.08 233.284 345.428 232.763 345.867 232.326C346.307 231.888 346.831 231.545 347.408 231.315C347.984 231.086 348.6 230.975 349.22 230.99L377.1 231.76C378.395 231.807 379.621 232.354 380.52 233.287C381.419 234.219 381.921 235.465 381.92 236.76C381.934 237.395 381.819 238.026 381.581 238.615C381.343 239.204 380.988 239.738 380.537 240.185C380.086 240.632 379.549 240.983 378.958 241.216C378.367 241.449 377.735 241.559 377.1 241.54Z" fill="#808080"/>
<path d="M79.75 213.16L223.17 216.55" stroke="#999999" stroke-miterlimit="10"/>
<path d="M79.75 205.55L223.17 208.52" stroke="#999999" stroke-miterlimit="10"/>
<path d="M79.75 197.94L223.17 200.48" stroke="#999999" stroke-miterlimit="10"/>
<path d="M79.75 190.32L223.17 192.44" stroke="#999999" stroke-miterlimit="10"/>
<path d="M79.75 182.71L223.17 184.41" stroke="#999999" stroke-miterlimit="10"/>
<path d="M79.75 175.1L223.17 176.37" stroke="#999999" stroke-miterlimit="10"/>
<path d="M79.75 167.49L223.17 168.33" stroke="#999999" stroke-miterlimit="10"/>
<path d="M79.75 159.88L223.17 160.3" stroke="#999999" stroke-miterlimit="10"/>
<path d="M97.0506 221.8L83.3105 221.43V191.25L97.0506 191.46V221.8Z" fill="#808080"/>
<path d="M116.54 222.32L102.59 221.95V183.02L116.54 183.19V222.32Z" fill="#F9D48E"/>
<path d="M136.33 222.85L122.17 222.47V176.57L136.33 176.71V222.85Z" fill="#808080"/>
<path d="M156.42 223.39L142.04 223.01V157.53L156.42 157.56V223.39Z" fill="#F9D48E"/>
<path d="M176.82 223.94L162.22 223.55V176.94L176.82 177.08V223.94Z" fill="#808080"/>
<path d="M197.54 224.5L182.71 224.1V191.78L197.54 192V224.5Z" fill="#F9D48E"/>
<path d="M218.59 225.06L203.521 224.66V204.88L218.59 205.17V225.06Z" fill="#808080"/>
<path d="M83.96 229.05L95.14 229.38" stroke="white" stroke-linecap="round" stroke-linejoin="round"/>
<path d="M103.38 229.63L114.73 229.97" stroke="white" stroke-linecap="round" stroke-linejoin="round"/>
<path d="M123.09 230.22L134.62 230.56" stroke="white" stroke-linecap="round" stroke-linejoin="round"/>
<path d="M143.11 230.81L154.81 231.16" stroke="white" stroke-linecap="round" stroke-linejoin="round"/>
<path d="M163.44 231.42L175.32 231.77" stroke="white" stroke-linecap="round" stroke-linejoin="round"/>
<path d="M184.08 232.04L196.15 232.4" stroke="white" stroke-linecap="round" stroke-linejoin="round"/>
<path d="M205.05 232.66L217.31 233.03" stroke="white" stroke-linecap="round" stroke-linejoin="round"/>
<path d="M394.37 181.05V173.87L413.88 174.02V181.24L394.37 181.05Z" fill="#F9D48E"/>
<path d="M394.37 191.09V183.92L419.39 184.19V191.43L394.37 191.09Z" fill="#808080"/>
<path d="M394.37 201.13V193.96L423.7 194.38V201.63L394.37 201.13Z" fill="#F9D48E"/>
<path d="M394.37 211.18V204L436.07 204.75V212.03L394.37 211.18Z" fill="#808080"/>
<path d="M394.37 221.22V214.05L423.7 214.67V221.92L394.37 221.22Z" fill="#F9D48E"/>
<path d="M394.37 231.26V224.09L414.49 224.59V231.81L394.37 231.26Z" fill="#808080"/>
<path d="M394.37 241.31V234.13L406.55 234.48V241.68L394.37 241.31Z" fill="#F9D48E"/>
<path d="M279.24 199.15C279.24 211.35 269.82 221 258.29 220.71C246.76 220.42 237.66 210.46 237.66 198.45C237.66 186.44 246.86 176.78 258.29 176.88C269.72 176.98 279.24 187 279.24 199.15Z" fill="#808080"/>
<path d="M259.28 176.94C258.95 176.94 258.63 176.88 258.28 176.88C246.85 176.78 237.65 186.44 237.65 198.45C237.65 210.46 246.85 220.45 258.28 220.71C258.62 220.71 258.94 220.71 259.28 220.71V176.94Z" fill="#F9D48E"/>
<path d="M272.72 199C272.72 207.4 266.24 214.07 258.29 213.89C250.34 213.71 244 206.87 244 198.56C244 190.25 250.38 183.56 258.28 183.67C266.18 183.78 272.72 190.64 272.72 199Z" fill="#263238"/>
<path d="M331 200C331 212.42 321.23 222.25 309.27 221.95C297.31 221.65 287.86 211.5 287.86 199.27C287.86 187.04 297.4 177.2 309.27 177.27C321.14 177.34 331 187.6 331 200Z" fill="#F9D48E"/>
<path d="M324.19 199.91C324.232 201.899 323.874 203.876 323.137 205.723C322.4 207.571 321.299 209.251 319.9 210.665C318.501 212.079 316.832 213.198 314.992 213.955C313.152 214.711 311.18 215.091 309.19 215.07C300.98 214.89 294.37 207.88 294.37 199.41C294.329 197.436 294.682 195.475 295.408 193.639C296.134 191.803 297.218 190.131 298.598 188.719C299.978 187.308 301.626 186.185 303.444 185.418C305.263 184.651 307.216 184.254 309.19 184.25C317.46 184.34 324.19 191.35 324.19 199.91Z" fill="#263238"/>
<path d="M384.63 200.93C384.666 203.894 384.105 206.836 382.98 209.579C381.856 212.322 380.192 214.811 378.086 216.898C375.981 218.985 373.477 220.628 370.724 221.727C367.97 222.827 365.024 223.362 362.06 223.3C356.081 223.082 350.42 220.548 346.274 216.234C342.128 211.92 339.821 206.163 339.84 200.18C339.808 197.246 340.36 194.335 341.464 191.617C342.567 188.898 344.2 186.426 346.268 184.344C348.336 182.263 350.797 180.613 353.508 179.491C356.219 178.369 359.126 177.798 362.06 177.81C368.106 177.923 373.864 180.412 378.089 184.739C382.313 189.067 384.663 194.883 384.63 200.93Z" fill="#808080"/>
<path d="M363.13 177.87C362.77 177.87 362.42 177.81 362.06 177.81C359.126 177.798 356.219 178.369 353.508 179.491C350.797 180.613 348.336 182.263 346.268 184.344C344.2 186.426 342.567 188.898 341.464 191.617C340.36 194.335 339.808 197.246 339.84 200.18C339.821 206.163 342.128 211.92 346.274 216.234C350.42 220.548 356.081 223.082 362.06 223.3C362.42 223.3 362.77 223.3 363.13 223.3V177.87Z" fill="#F9D48E"/>
<path d="M377.611 200.81C377.635 202.854 377.249 204.882 376.475 206.775C375.701 208.667 374.554 210.384 373.104 211.825C371.654 213.266 369.929 214.401 368.032 215.163C366.135 215.924 364.104 216.298 362.061 216.26C357.919 216.119 353.995 214.369 351.123 211.382C348.251 208.394 346.657 204.404 346.681 200.26C346.659 198.232 347.042 196.219 347.807 194.34C348.571 192.461 349.702 190.753 351.134 189.316C352.566 187.879 354.269 186.741 356.145 185.969C358.021 185.197 360.032 184.807 362.061 184.82C366.233 184.909 370.203 186.636 373.112 189.628C376.022 192.62 377.638 196.637 377.611 200.81Z" fill="#263238"/>
<path d="M253.851 199.82L263.351 199.99" stroke="white" stroke-miterlimit="10"/>
<path d="M304.811 200.7L314.671 200.87" stroke="white" stroke-miterlimit="10"/>
<path d="M356.74 201.6L366.97 201.78" stroke="white" stroke-miterlimit="10"/>
<path d="M305.251 83.38L305.321 82.62L305.101 82.84L305.251 83.38Z" fill="#808080"/>
<path d="M275.75 94.59L276.26 94.67L277.43 94.31L275.75 93.77L275.98 94.32L275.3 94.48L275.75 94.59Z" fill="#808080"/>
<path d="M289 103.89L286.42 102.89L285.96 103.16L286.03 102.77L285.2 102.21L284.25 102.61L284.56 102.14L283.85 101.94L283.62 102.26L284.06 101.41L283.52 100.22L282.91 99.69L281.55 99.51L280.55 98.51H280.04L280.13 98.18L279.61 97.97V97.74L279.32 97.65L278.64 97.94L277.52 97.65L276.95 97.12L276.85 97.38L276.37 97.71L276.49 98.29L276.12 98.16L276.27 97.63L276.22 97.35L276.31 97.27L276.4 97.02L275.4 97.57H275.23L274.43 98.78H274.36L274.14 98.46L273.65 98.21L273.15 98.43H272.59L272.02 97.68L272.23 96.01L271.84 95.7H270.44L270.3 95.61L270.51 94.73H270.58L270.99 93.39H270.14L269.36 94.6L268.28 94.79L267.88 94.58L267.31 93.66V91.48L267.17 91.42L267.31 91.48L267.21 90.97L267.3 90.58L268.49 89.65L269.65 89.91L269.81 89.77L270.12 90.01L269.97 89.59L270.52 89.33L270.66 89.44L271.12 89.36L271.45 89.62H271.69L272.02 89.49L272.9 91.49H273.17L273.32 91.01L272.83 89.01L274.42 87.22V86.96L274.51 86.81H274.75L274.84 86.57L274.6 86.16V85.97L274.37 85.63L274.51 85.49V84.96H274.63L274.69 85.83L274.85 85.71L274.92 85.01H275.17L275.35 84.5L276.06 84.21H275.53L276.09 83.99L276.27 83.82H276.56L276.47 83.51L276.74 82.86L277.2 82.41H277.64L278.64 81.64V81.81L278.96 81.94L278.25 82.31V82.76L278.71 82.65L279.04 82.31L279.85 82.04L280 82L280.47 81.79L280.34 81.63V81.35L279.77 81.93L279.15 81.82L278.77 81.48V81.06L278.61 80.93V80.77L278.96 80.25L277.44 80.57L276.67 81.34L277.55 80.18L277.92 80.05L278.18 79.69L280.38 79.5L281.98 78.5V78.33L281.88 78.22L282 78L281.81 77.69L281.44 77.76V77.43L280.55 77.78L280.47 77.62L281.38 77.19L279.67 76.11V76L279.95 75.82L278.85 73.82L278.53 74.24L278.41 74.71L278.29 74.86H278.08L277.73 75.11L277.15 74.6L277 73.9L277.12 73.55L276.32 73.3L275.59 72.64L275.24 72.78L274.17 72.64L274.02 72.94L274.25 73.21L274.06 73.6L274.3 74.19L273.95 75.05L274.47 75.52L274.55 76.4L274 77L273.51 77.22L273.79 78.49L273.72 78.83L273.77 79.03H273.61L273.42 79.29L273.13 79.17L272.51 78.27V77.34L272.31 77.09L269.41 75.95L268.89 76.14V75.94L268.48 75.1L268.1 75L268.32 73.57L269.51 72.3L268.45 71.83L269.66 72.03L269.75 71.68L270.26 71.76L270.76 71.16L269.88 70.75V70.53L270.58 70.9L271.1 70.45L270.9 70.22L271.17 70.08L271.4 70.26H271.77L271.58 69.98L271.64 69.87L272 70H272.3L272.82 69.56L272.53 68.84V68.67L272.88 68.52L272.67 68.11L271.46 67.75V68.13L271.57 68.33L271.51 68.51L271.28 68.69L271.11 69.1L270.96 68.85L270.91 69.17L271.04 69.41L270.8 69.62L270.37 69.03L270.52 68.85V68.6L270.29 68.33L269.96 68.25L269.67 68.87L269.56 68.39L269.69 68.06L269.34 67.91L269.08 67.99V67.65L269.28 67.56L268.76 67.1V66.75L268.31 66.4L268.23 66.23L268.48 66.01L268.56 65.61H269.1L269.61 64.8L268.67 64.51L267.94 64.66L268.04 64.9H267.81L268 66.27L267.79 66.51L267.9 66.74H267.61V67.82L268.31 68.09L268.19 68.62L268.36 68.47L268.52 68.69L267.94 69.11V69.5L267.75 69.65L267.57 69.33V69.02L267.17 68.9L267.43 68.84L267.61 68.68L268.01 68.63L267.82 68.29H267.54L267.83 68.22L267.23 68L266.48 68.4L267.05 68.82L266.75 69.04V69.3L264.83 69.2L264.52 69.03L264.34 68.72H263.77L263.26 69L263.42 69.16L264.2 68.86L263.63 69.22V70.08L263.41 69.98V69.65L261 69.49L261.39 69.17L261.26 68.87L259.01 68.28L257.83 68.52V68.26L257.72 67.95L257.25 68.53L256.73 67.75L256.52 67.83L256.14 68.33L254.71 69.07L254.79 68.85L256.01 68.07H255.71L254.53 68.64L254.27 68.5L253.8 68.91L253.94 69.14L248.12 68L248.01 67.8H247.42L247.25 67.64L246.81 67.76L246.94 67.58L246.67 67.44L245.45 67.98L245.53 68.19L244.77 68.29L244.37 68.69L244.23 69.12L243.36 69.34L243.27 69.6L244.21 70.54H244.79L244.9 70.88L245.27 70.96L244.13 71.2V71H243.7L243.51 71.24H243.21L242.75 71.56L243.25 71.78L243.18 71.97L243.44 72.26H244.44L245.05 71.99L244.95 72.27V72.8L244.53 72.85L244.35 73.18L244 73.1L243.86 73.51L243.52 73.81L243.35 74.17L243.66 74.4V74.78L244.08 75.24L244.49 75.15L244.66 74.98L244.77 75.83H245.83L245.97 75.62H246.34L246.23 76.45L245.23 77.45L244.7 77.53L244.45 77.97L247.72 75.58L247.45 75.43L248.66 74.1L248.87 74.19V74.34L248.52 74.43L248.38 74.8V75.09L248.26 75.27L248.4 75.4L249.08 74.95H249.57V74.74L249.42 74.51L249.53 74.31L250.24 74.45L250.09 74.59V74.73L250.57 74.62L250.64 74.69L251.78 74.78L252.09 75.01L252.51 74.84L252.44 75.09L253.44 75.81L253.64 75.61L253.92 75.77V75.43H254.05V75.95L253.79 75.89L253.56 75.97L254.11 76.85V76.15L254.16 76.43L254.36 76.29V76L254.56 76.27L254.45 76.55L254.26 76.66V77.08L254.4 76.93L254.62 76.87L254.92 77.13L254.78 76.94V76.72L255.04 77.11L254.87 77.32L254.57 77.16L254.62 77.86L254.74 77.72L254.93 77.8L255.01 77.57L255.18 77.64L255.34 77.54V77.82H255.49L255.64 78.02L255.54 78.19L255.6 78.49H255.9L255.98 78.72L256.41 79.05L256.49 79.67L257.4 80.08L257.53 80.32L258 80.47L258.3 80.89L258.36 81.3L258.25 81.71L258.09 81.12V80.95L257.09 80.08L256.27 79.93L257.37 80.93L257.86 82.08L257.91 85.88L259.07 87.81L259.79 88.07L261.27 90.78H260.99L261.8 91.4L261.9 91.9L262.67 92.81L262.84 92.68L262.77 92.36L262.47 92.22L261.47 90.28V90.07L261.2 89.94L260.89 89.04H261.02L261.55 89.24L261.68 90.24L264.26 93.48V93.78L264.15 93.92L264.43 94.42L266.96 95.74H268.3L268.67 96.07L269.06 96.44L270.23 96.79L270.35 96.73H270.45L270.54 97.03L271.08 97.65V97.81L271.17 98.16L271.37 98.11L272.77 99.11L273.04 99.02L272.94 98.8L273.12 98.6L273.51 98.45L273.93 99.26L273.99 100.77L273.45 101.48V101.53L273.21 101.68L273 103L273.21 103.21H273.38L273.22 103.46L272.93 103.81L273.07 104.36L272.96 104.47L274.82 108.03L276.82 109.53L275.37 120.53L275.53 120.8L275.69 120.07L275.82 119.92L275.91 120.07L275.78 121.78L275.6 121.9V122.16L275.38 122.06L275.53 121.79L275.35 121.5L275.46 121.82L275.07 122.09V122.28L274.85 122.53H275.3V122.73L275.19 122.98H275.52V123.14H275.08L274.84 123.36L274.97 123.54L275.15 123.41H275.29L274.93 123.83L275.09 124.12L275.35 123.77L275.25 124.36L275.04 124.62V125L275.4 124.94L275.47 125.08L275.31 125.27H275.52H275.64L275.86 125.36L275.55 125.51L275.45 125.75L275.71 125.65H276.25L275.61 125.92V126L276.33 125.76L275.88 126.13H275.51V126.4L276.04 126.58L275.98 126.44L276.7 125.65L276.6 126.08H276.92L276.72 126.26V126.54L276.57 126.21L276.5 126.46L276.33 126.39L276.06 126.71L276.32 126.77L276.49 127.13L276.62 126.81L276.87 127.18L276.99 127.04L277.36 127.34V127.07L278.45 126.87L277.35 126.04V125.87L277.22 125.65L276.91 125.49V125.43H277.24L277.02 124.75L277.09 124.38L278.15 123.08L278.22 122.68L277.87 122.58L277.62 121.97L278.2 121.58L278.63 120.38L278.83 120.51L278.97 120.2L278.72 120.27L278.53 120.17L278.46 119.49L279.02 119.65L279.43 119.41V118.74L279.56 118.58L280.46 118.51L281.13 118.12L281.45 117.59L280.8 116.46H280.92L281.52 116.66L282.32 116.57L283.41 114.57V115.08L284.22 113.85L284.43 112.36L285.81 111.36L286.72 111.24L287.72 109.09L287.81 107.09L287.88 106.97L288.1 107.04L289.21 105.3L289.14 104.13L288.83 103.9L289 103.89Z" fill="#808080"/>
<path d="M275.361 93.73L273.011 92.54L271.771 93.07L272.371 92.74L274.051 93.47L274.221 93.79L275.361 93.73Z" fill="#808080"/>
<path d="M273.91 94.54L274.63 94.67L273.91 94.54Z" fill="#808080"/>
<path d="M277.91 94.5L278.49 94.48L277.91 94.5Z" fill="#808080"/>
<path d="M269.351 102.11L269.571 102.52L269.351 102.11Z" fill="#808080"/>
<path d="M293.99 66.83L292.58 66.8L292.74 66.15L294.03 66.6L294.15 66.06L293.23 65.15L293.75 65.21L294.09 64.78L293.24 64.79L293.08 64.53L293.22 64.19L294 64.43L294.6 64.25L294.13 63.76L294.92 63.65L295.01 63.37L294.37 62.93L294.99 62.79L294.82 62.05L294.19 61.9L293.93 61.59L295.38 61.47L295.16 61.05L294.57 60.92L295.06 60.79L294.06 60.66L294.28 59.9L295.5 58.9L295.26 58.59L294.67 58.82L295.15 58.47L296.05 58.29L295.39 58.14L297.6 57.1L296.38 56.75L295.66 57.16L294.93 57.23L294.62 57.11L293.32 58.12L293.91 57.26L293.69 56.68L292.1 57.47L292.84 56.92L290.17 57.17L294.19 56.19L288.56 55.48L287.96 55.85L285.29 55.97L285.64 56.33L285.01 56.56L285.91 57.18L283.72 56.58L284.15 57.13L283.66 57.17L283.01 56.79L282.98 57.3L282.69 57.59L282.5 56.77L279.98 57.51L280.08 58.12L279.41 58.02L277.82 59.07L278.68 59.19L278.39 59.94L275.95 60.84L276.16 61.14L278.24 61.58L276.44 61.9L277.07 62.07L277.08 62.39L277.5 62.64L279.31 62.42L281.01 63.13L282.25 65.14L282.07 65.65L282.24 66.19L282.77 65.91L282.9 66.31L283.57 66.66L283.43 66.83L282.49 66.78L283.44 67.25L283.75 67.66L283.68 68.22L283.23 68.26L282.66 69.16L283 69.5L282.73 69.87L283.22 70.44L283.28 71.13L284.11 72.56L286.28 73.88L286.54 73.56L286.69 72.28L287.28 71.48L287.29 71.19L287.43 71L287.36 70.7L287.41 70.54L288.24 69.82L288.41 69.81L288.49 70.02L289.15 69.84L290.37 68.53L293.86 67.04L293.99 66.83Z" fill="#808080"/>
<path d="M283.32 67.6L283.04 67.31L282.35 67.19L282.3 67.54L282.69 67.79L283.32 67.6Z" fill="#808080"/>
<path d="M269.101 63.81L270.081 64.12L270.331 63.99L273.201 64.02L273.511 63.37L269.971 63.18L270.081 62.8L268.401 62.28L267.521 62.45L269.091 63.19L269.101 63.81Z" fill="#808080"/>
<path d="M273.44 73.21L273.49 72.76L273.44 73.21Z" fill="#808080"/>
<path d="M265.55 67.92L266.04 67.88L264.87 67.06L264.63 65.02L263.95 65.22L264.39 65.64L263.91 65.44L263.54 65.45L263.77 66.42L263.55 66.64L263.29 65.96L262.64 65.69L262.91 66.02L262.5 66.07L261.84 65.68L261.61 66.06L261.35 65.95L261.41 65.48L259.9 66.19L259.8 66.47L260.1 67L260.92 66.85L260.01 67.29L262.21 67.66L260.3 68.06L262.34 68.96L263.89 68.39L265.7 68.55L265.47 68.2L265.2 68.19L265.55 67.92Z" fill="#808080"/>
<path d="M272.08 72.86L272.67 72.39L272.08 72.86Z" fill="#808080"/>
<path d="M281.971 78.98L281.801 78.85L280.771 80.9L282.141 80.85L282.051 81.14L282.351 80.99L283.011 81.14L282.831 80.57L282.691 80.48L282.711 80.08L282.121 79.94L281.961 79.71L281.691 79.73L281.721 79.44L281.971 78.98Z" fill="#808080"/>
<path d="M278.891 79.82L279.861 80.17L278.891 79.82Z" fill="#808080"/>
<path d="M273.2 71.84L271.6 70.6L271.21 70.88L270.82 71.98L271.26 71.95L271.44 72.27L272.03 71.88L273.2 71.84Z" fill="#808080"/>
<path d="M265.08 63.91L264.76 63.72L265.08 63.91Z" fill="#808080"/>
<path d="M275 69.36L275.05 68.82L274.6 68.71L274.28 69.34L275 69.36Z" fill="#808080"/>
<path d="M266.58 66.74L267.2 66.53L267.66 65.53L267.45 65.49L267.4 65.65L266.97 65.47L267.42 65.03L267.17 64.66L265.92 65.22L266.3 65.56L265.61 65.51L266.58 66.74Z" fill="#808080"/>
<path d="M258.33 67.32L260.95 65.34L260.52 64.91L258.9 64.55L257.81 64.78L257.97 65.15L257.41 66.37L258.33 67.32Z" fill="#808080"/>
<path d="M269.89 61.68L269.55 62L269.89 61.68Z" fill="#808080"/>
<path d="M259.69 63.72L260.23 63.3L259.69 63.72Z" fill="#808080"/>
<path d="M254.87 78.25L255.4 79.11L255.23 78.5L254.87 78.25Z" fill="#808080"/>
<path d="M268.73 61.58L267.71 61.83L268.73 61.58Z" fill="#808080"/>
<path d="M276.4 66.44L275.87 66.47L274.28 65.52L273.89 65.87L273.68 65.79L273.1 66.02L273.12 65.34L272.87 64.87L272.19 64.89L271.44 65.25L271.55 65.84L271.37 66.22L271.74 66.51L271.15 66.26L271.07 65.75L271.26 65.17L271.61 64.8L270.23 65.24L269.91 66.64L270.65 66.78L270.57 66.96L270.05 67.03L272.56 67.72L272.92 67.53L273.71 67.63L273.66 67.38L273.74 67.18L274.88 68.06L274.53 68.41L275.08 68.21L275.93 68.97V69.67L276.51 69.6L277.05 69.89L276.54 70.19L275.65 69.84L275.56 70.52L274.27 70.86L274.07 71.37L275.71 71.25L276.12 71.65L276.32 72.16L278.25 72.89L277.33 71.85L278.81 71.98L277.69 70.39L277.79 69.94L278.29 70.12L278.8 70.68L279.53 70.31L279.99 69.78L277.57 68.19L278.05 68.05L277.65 67.83L277.85 67.64L277.66 67.31L277.41 67.46L277.47 67.14L276.68 66.77L276.23 66.89L276.1 66.77L276.4 66.44Z" fill="#808080"/>
<path d="M273.061 64.78L273.271 65.27L273.801 65.45L274.641 65.26L273.751 64.79L273.061 64.78Z" fill="#808080"/>
<path d="M262.89 61.66L262.68 61.51L261.8 61.86L262.26 62.2L262.89 61.66Z" fill="#808080"/>
<path d="M264.71 60.71L265.17 60.95L264.62 61.07L266.64 61.43L266.5 60.99L265.71 60.45L264.48 60.29L264.71 60.71Z" fill="#808080"/>
<path d="M261.61 61.8L261.15 61.7L261.61 61.8Z" fill="#808080"/>
<path d="M264.82 62.2L264.29 61.74L264.82 62.2Z" fill="#808080"/>
<path d="M260.81 63.1L260.86 63.37L260.56 63.71L260.92 63.7L260.3 63.95L261.23 64.01L261.5 63.88L262.17 63.91L261.66 64.25L261.64 64.62L264.15 64.01L264.28 63.18L263.89 63.36L263.25 62.58L262.88 63.03L262.91 63.3L263.17 63.59L261.18 62.84L260.81 63.1Z" fill="#808080"/>
<path d="M258.54 63.49L259.06 63.23L259.3 63.54L260.03 62.66L260.13 63.02L260.73 62.75V62.45L260.95 62.23L260.67 62.06L260.46 62.22L260 62.19L258.41 63.27L258.54 63.49Z" fill="#808080"/>
<path d="M262.13 61.35L263.14 61.17L262.38 60.99L261.72 61.33L262.13 61.35Z" fill="#808080"/>
<path d="M267.66 59.76L268 60.18H269.02L268.4 60.54L269.72 61.19L270.22 61.15L270.93 60.34L271.52 60.09L270.84 59.67L270.68 59.3L268.4 58.34L268.44 58.52L267.91 58.9L267.97 59.34L267.66 59.76Z" fill="#808080"/>
<path d="M267.48 61.53L268.1 61.38L268.13 61.08L267.03 60.69L267.48 61.53Z" fill="#808080"/>
<path d="M266.83 59.81L266.36 59.63L266.83 59.81Z" fill="#808080"/>
<path d="M268.39 63.51L267.51 63.94L268.56 64.19L268.39 63.51Z" fill="#808080"/>
<path d="M266.18 62.46L266.29 62.92L265.88 62.81L265.76 63.1L265.55 63.13L264.97 62.54L264.93 63.04L265.48 63.47L266.32 63.42L266.24 63.92L266.97 63.94L267.26 63.6L267.23 63.2L266.83 62.6L266.18 62.46Z" fill="#808080"/>
<path d="M269.541 57.93L269.741 57.98L269.881 58.13L269.771 58.41L270.091 58.64L270.981 58.65L271.081 58.84L273.571 58.38V58.72L272.421 59.05L272.861 59.57L271.161 59.14L271.181 59.78L272.511 60.7L271.571 60.52L270.671 61.01H271.501L271.431 61.26L271.831 61.78L271.371 61.74L270.761 61.4L270.701 62.05L269.991 62.48L273.941 62.44L274.101 62.08L272.951 61.96L272.961 61.72L273.881 61.66L273.941 61.26L274.601 61.19L275.301 60.34L274.361 60.14L275.151 59.88L275.591 59.49L276.271 59.52L278.851 57.84L277.801 57.81L279.701 57.17L279.801 56.77L278.851 56.43L278.051 56.58L278.191 56.33L271.411 57.12L270.841 57.56L270.301 57.49L270.021 57.75L269.271 57.85L269.541 57.93Z" fill="#808080"/>
<path d="M243.8 78.34L244.26 78.06L243.8 78.34Z" fill="#808080"/>
<path d="M247.85 76L247.54 76.41L247.29 76.53L247.44 76.83H247.62L248.07 76.44L247.94 76.21L248.19 76.07L248.12 75.88L247.85 76Z" fill="#808080"/>
<path d="M243.27 74.97L242.96 75.1L243.44 75.25L243.51 74.98L243.27 74.97Z" fill="#808080"/>
<path d="M303.13 84.29L302.82 84.42L303.13 84.29Z" fill="#808080"/>
<path d="M311.21 86.14L310.42 86.07L310.2 86.18L310.73 86.32L311.21 86.14Z" fill="#808080"/>
<path d="M313.91 86.23L314.11 85.97L314.1 85.89L313.59 86.08L313.42 86.37L313.91 86.23Z" fill="#808080"/>
<path d="M296.48 70.84L297.04 70.26L296.59 69.49L296.35 69.52L296.01 69.34L295.97 69.59L295.41 69.66L295.23 69.6L294.99 69.79L294.85 69.71L294.68 69.84L294.64 70.03L294.4 70.16L294.31 69.83L293.77 69.44L293.82 69.67L293.69 69.66L293.46 69.77L293.28 70.04L294.05 70.12L293.98 70.32L293.39 70.57H293.91L294.14 70.85L293.84 71.18L294.29 71.15L294.94 71.42L296.48 70.84Z" fill="#808080"/>
<path d="M298.57 78.37L299.62 77.95V76.94L299.89 76.74L299.69 76.29L298.84 76.47L299.01 76.66L298.72 76.83L298.34 76.85L298.55 77.44L298.45 77.78L298.21 78.06L298.57 78.37Z" fill="#808080"/>
<path d="M299.64 74.4L299.41 74.77L299.64 74.4Z" fill="#808080"/>
<path d="M299.561 74.95L299.811 75.18L299.681 75.48L299.871 75.7L299.581 75.96L299.831 75.85L299.981 76.09L300.181 75.77L300.211 76.05L300.081 76.46L300.601 76.39L300.841 76.91L300.811 77.28L300.451 77.3L300.341 77.37L300.231 77.63L300.441 77.78L300.101 78.06L300.241 78.23L300.821 78.33L300.851 78.43L300.461 78.5L300.001 79.15L300.271 78.97L300.531 79.03L300.691 78.84L301.231 78.7L301.511 78.77L302.411 78.42L302.261 78.34L302.291 78.1L302.581 77.7L302.031 77.48V77.26L301.171 75.87L300.841 75.82L301.251 74.83L300.581 74.82L300.461 74.69L300.731 74.34L300.791 74.1L300.631 74.27L300.241 74.29L299.771 75.03L299.561 74.95Z" fill="#808080"/>
<path d="M306.13 76.43L306.39 76.09L306.48 75.65L306.36 75.75L306.24 75.65L306 75.78L306.14 76.14L306.04 76.26L306.13 76.43Z" fill="#808080"/>
<path d="M308.61 74.48L308.37 75.02L308.61 74.48Z" fill="#808080"/>
<path d="M310.041 73.79L309.811 73.82L310.041 73.79Z" fill="#808080"/>
<path d="M309.74 74.33L310.11 74.04L309.88 73.97L309.74 74.33Z" fill="#808080"/>
<path d="M308.44 58.3H309.75L309 58.61L310.27 58.86L311.64 58.01L310.39 57.84L310.19 57.96L309.99 57.7L309.92 58.1L309.64 57.93L309.34 57.92L308.95 57.68L308.97 57.86L308.71 57.79L308.72 58.02L308.45 57.81L308.3 57.97L308.48 58.14L308.44 58.3Z" fill="#808080"/>
<path d="M305.95 59.69L306.2 59.88L305.73 59.34L305.95 59.69Z" fill="#808080"/>
<path d="M306.28 58.95L306.07 59.35L306.43 59.79L306.94 59.81L307.32 59.3L307.35 59.55L307.66 59.5L307.8 59.63L306.81 60.1L307.13 60.24L307.85 60.18L306.86 60.54L307.22 60.85L307.57 60.88L307.4 61.04L307.69 61.23L307.93 61.14L308.77 59.54L309.21 59.38L309.28 59.47L309.33 59.78L309.46 59.92L309.4 60.31L309.74 60.38L309.94 60.58L310.7 60.08L310.15 59.94L310.09 59.78L309.81 59.67L309.61 59.45L309.54 59.22L308.62 58.9L308.48 58.59L308.19 58.74L308.28 58.45L307.91 58.31L307.72 58.13L307.58 58.52L307.8 59.13L307.16 58.43L307.02 58.76L306.92 58.84L306.65 58.6L306.95 58.46L306.75 58.39L306.19 58.44L305.9 58.59V59L306.28 58.95Z" fill="#808080"/>
<path d="M353.081 81.31L352.771 81.46L352.561 81.95V82.27L352.951 82.13L352.731 81.83L353.601 81.92L354.371 81.52L354.981 80.79L354.261 81.02L353.451 80.38L353.211 80.51L353.081 81.31Z" fill="#808080"/>
<path d="M348.87 86.27L348.71 86.56L348.92 86.44L349.12 87.35L349.53 86.64L349.45 86.38L349.2 86.17L348.87 86.27Z" fill="#808080"/>
<path d="M351.28 84.67L351.05 85.09L349.83 85.3L349.26 85.79V86.04L350.59 85.64L350.75 86L351.18 85.97L351.31 85.68L351.43 85.62L352.17 85.59L352.39 85.34L352.74 85.27L352.93 84.04L353.27 83.58L353.09 82.48L352.62 82.64L352.37 83.75L351.8 84.46L351.56 84.33L351.28 84.67Z" fill="#808080"/>
<path d="M350.011 86.44L350.331 86.29L350.581 85.92L350.211 85.88L349.861 86L349.811 86.55L350.011 86.44Z" fill="#808080"/>
<path d="M345.36 91.42L345.82 90.13L345.16 90.72L345.36 91.42Z" fill="#808080"/>
<path d="M341.54 92.98L341.73 92.48L341.28 92.46L340.92 93.03L341.54 92.98Z" fill="#808080"/>
<path d="M347.131 96.86L346.701 97.27L346.381 97.19L345.951 97.48L345.811 97.91L346.411 97.59L346.711 98.3L347.101 98.51L347.081 97.98L347.481 97.79L347.391 96.88L347.131 96.86Z" fill="#808080"/>
<path d="M345.021 93.98L345.221 94.86L346.381 95.45L346.821 96.51L347.111 96.15L347.011 95.65L346.341 94.97L345.831 94.88L345.641 94.5L345.891 93.91L345.811 93.1L345.271 93.06L345.201 94.03L345.021 93.98Z" fill="#808080"/>
<path d="M345.23 95.22L345.58 95.65L345.23 95.22Z" fill="#808080"/>
<path d="M344.55 96.65L344.08 97.34L344.75 96.64L344.85 96.19L344.55 96.65Z" fill="#808080"/>
<path d="M346.77 96.66L346.5 96.86L346.77 96.66Z" fill="#808080"/>
<path d="M346.38 96.31L345.82 95.83L345.84 96.39L346.04 96.27L346.12 97.05L346.52 96.38L346.38 96.31Z" fill="#808080"/>
<path d="M356.881 102.66L356.431 102.97L355.641 103.02L356.241 103.31L357.011 102.87L357.121 102.5L356.881 102.66Z" fill="#808080"/>
<path d="M357.371 102.61L357.251 102.19L357.141 102.22L357.371 102.61Z" fill="#808080"/>
<path d="M355.34 103.23L351.6 101.36L350.67 102.14L350.28 101.12L349.43 101.01L349.12 101.28L349.31 101.39L349.52 101.67L350.11 101.69L350.08 101.82L349.54 101.95L349.77 102.31L351.77 103L351.98 103.47L351.97 103.84L351.62 104.18L352.48 104.11L353.27 104.59L353.94 103.99L354.71 104.17L355.53 104.97L356.31 105.11L356.25 104.86L355.61 104.39L355.26 103.5L355.34 103.23Z" fill="#808080"/>
<path d="M330.83 97.06L330.68 97.99L330.87 98.6L331.43 98L330.83 97.06Z" fill="#808080"/>
<path d="M319.41 106.21L319.28 106.34L319.23 106.63L318.83 107L318.82 107.22L317.59 107.88L317.26 110.98L317.5 111.75L318.14 111.92L318.51 111.76L319.59 107.71L319.81 107.66L319.41 106.21Z" fill="#808080"/>
<path d="M320.98 96.07L321.35 95.98L320.98 96.07Z" fill="#808080"/>
<path d="M354.85 118.94L354.22 118.75L354.39 119.58L354.88 120.21L355.09 120.05L355.17 119.83L355.39 119.88L355.48 118.79L354.85 118.94Z" fill="#808080"/>
<path d="M348.811 105.73L349.291 105.6L348.811 105.73Z" fill="#808080"/>
<path d="M351.13 116.44L351.58 116.37L351.13 116.44Z" fill="#808080"/>
<path d="M357.53 112.67L357.42 111.67L356.61 110.77L356.48 110.34L356.33 110.21L356.12 110.23L355.76 109.34L354.91 108.79L354.21 106.75L353.92 106.76L353.45 105.19L353.21 105.49L352.93 107.66L352.61 108.15L350.85 107.01L350.91 106.46L351.15 106.26L351.27 105.98L351.19 105.78L351.05 105.95L350.91 105.73L350.63 105.87L349.57 105.4L349.71 105.67L349.14 105.87L348.62 106.68L348.64 107.03L348.21 107.1L347.57 106.57L347.36 106.71L347.25 106.9L346.96 106.92L346.9 107.1L346.72 107.24L346.65 107.65L346.38 107.62L346.44 107.93L346.32 108.15L346.18 107.84L345.89 108.01L345.87 108.49L345.34 109.09L343.09 110.03L342.89 110.33L342.85 110.08L342.66 110.38L342.61 111.51L342.82 112.06L342.6 111.85L342.71 112.14L342.45 111.92L343.46 114.56L343.38 115.11L343.17 115.46L343.27 115.73L343.54 115.99L344.25 116.06L349.16 114.36L350.26 114.78L350.28 115.03L350.61 115.38L350.7 115.84L351.69 115.02L351.3 115.94L351.64 115.9L351.85 115.78L351.8 116.23L352.07 116.21L352.58 117.31L353.71 117.77L354.18 117.46L354.33 117.53L354.4 117.65L354.5 117.57L354.87 117.92L355.39 117.39L356.16 117.23L357.53 112.67Z" fill="#808080"/>
<path d="M362.84 121.95L362.98 121.76L362.84 121.95Z" fill="#808080"/>
<path d="M319.28 66.97L319.96 66.8L319.63 66.54L319.28 66.97Z" fill="#808080"/>
<path d="M320.73 64.92L320.79 65.22L320.93 65.08L321.68 65.58L322.63 65.55L322.13 65.07L322 64.19L323.03 62.58L326.82 60.48L322.33 61.94L321.94 62.76L321.63 62.95L321.49 63.48L320.91 63.88L321.03 64.16L320.36 64.69L320.73 64.92Z" fill="#808080"/>
<path d="M335.03 56.29L334.54 56.38L335.03 56.29Z" fill="#808080"/>
<path d="M353.91 62.68L353.43 62.18L352.82 62.52L353.91 62.68Z" fill="#808080"/>
<path d="M353.04 61.9L352.69 62.07L353.04 61.9Z" fill="#808080"/>
<path d="M335.88 57.47L335.63 57.84L337.3 58.4L337.72 57.62L336.9 57.19L335.88 57.47Z" fill="#808080"/>
<path d="M337.561 59.13L339.801 58.47L339.321 58.13L338.791 58.27L338.831 58.05L338.621 57.79L338.231 57.96L338.101 58.3L337.821 58.54L337.561 59.13Z" fill="#808080"/>
<path d="M351.92 61.45L353.47 61.3L353.44 60.82L354.12 61.26L354.38 60.89L354.29 60.54L353.49 60.39L352.96 60.56L352.25 60.2L351.62 61.19L351.92 61.45Z" fill="#808080"/>
<path d="M353.781 75.96L353.541 75.47L353.311 79.94L353.551 79.66L353.871 79.96L353.551 79.11L353.661 78.44L354.101 78.38L354.221 78.3L353.781 75.96Z" fill="#808080"/>
<path d="M342.26 62.03L342.04 62.23L342.7 62.09L342.26 62.03Z" fill="#808080"/>
<path d="M355.85 61.38L356.74 61.16L355.2 60.78L354.94 61.07L355.85 61.38Z" fill="#808080"/>
<path d="M335.31 57.15L335.22 57.31L334.96 57.46L335.29 57.7L336.73 57.02L336.83 56.67L336.4 56.06L335.46 56.58L335.3 56.87L335.31 57.15Z" fill="#808080"/>
<path d="M370.65 67.88L371.07 67.97L370.99 67.85H371.07H371.27L371.51 67.5L370.27 66.87H369.78L370 67L369.95 67.27L369.71 67.16V66.74L369.57 66.52L364.22 64.76L364.1 65.03L364.28 65.36L364.19 65.76L363.31 65.31L363.76 65.07L363.29 64.87L362.85 65.27H360.79L360.72 65.66L360.62 65.26L360.13 65.08L360.2 64.81L359.59 64.24L357.32 64.37L357.22 64.17L356.14 63.81V63.68L356.44 63.51L355.25 63.33L355.03 63.74H354.63L354.92 63.53L354.51 63.4L354.71 63.29H355L353 63L352.92 63.19L352.25 63.6H352.55L352.45 63.82L352.56 64.1H351.91L351.81 64.19V64.36L351 64L350.57 64.17L349.81 63.94L349.37 64.7L349.14 64.62L348.25 63.67H348.67L348.43 62.79L348.18 62.61H347.55L346.8 62.23L346.44 62.66V62.97L344.57 63L344.72 62.8H342.78V63.02L342.72 62.62L342.53 62.57L342.15 62.65L341.73 62.42L341.31 62.7L341.53 62.76L339.92 63.38L340.01 63.09L342.01 61.92L342.19 61.69L342.63 61.48L342.8 61.23L342.64 61.09L342.82 61.01L342.7 60.63H342.46L342.38 60.29L340.85 60.2L340.61 60.36L340.15 60.43L340.41 60.03L339.41 59.95L339.86 59.74V59.58L339.17 59.4L338.68 59.53L338.03 60.26L338.1 60.43L337.33 60.62L337.57 60.81L336.5 60.94L336.6 60.71L336.25 60.82H336.01L335.42 61.01L335.64 61.17L333.46 61.85L333.41 61.95L333.27 62.06L333.37 62.2H333.06L333.42 62.45H333.14L333.42 62.71V62.89L331.31 63.16L331.2 63.87L331.69 64.15L331.9 64.54L330.18 63.98L329.95 64.19L330.3 64.38L329.6 64.55L330.42 65.16L330.36 65.28L329.94 65.05H329.32L329.39 64.37L329.23 63.87L329.04 64.47L328.61 64.74L328.46 64.99L328.88 65.55L328.68 66.66H328.96L329.38 66.55L330.08 66.79L330.22 67.11L330.05 67.41L330.47 67.72H330.06L329.9 67.47L329.99 67.17L329.57 66.75L329.01 66.94L329.09 67.5L328.18 68.62H327.18L327 68.45L327.61 68.56L328.44 67.72L328.61 67.1L328.32 66.75L328.4 65.51L328.1 65.06L328.38 64.06L327.23 63.89L326.15 65.51L326.35 65.56L326.17 66.37L326.6 66.54L326.75 66.87L326.97 66.99L326.75 67.4L323.19 65.95L323.3 66.29L323.8 66.58L323.96 66.91L323.85 67.14L323.41 67.38V67L323.19 66.82L322.64 67.15H322.03L321.69 67.43H321.2L321.46 66.91L320.96 67.09L320.89 67.32L320.73 67.22L319.16 67.92L319.08 68.36L318.46 68.47L318.18 68.17V67.91L318.76 67.76L318.54 67.38L317.63 67.2L317.8 67.64L317.66 68.1L317.91 68.6L317.8 68.92H317.64L317.54 68.81L317.17 68.74L316.28 69.33L316.45 70.01L315.64 69.9L315.23 69.64L315.01 69.87L315.12 70.11L315.47 70.23V70.48L315.2 70.54L314.59 70.25L314.31 69.72V69.2L313.31 68.35L315.57 69.03L316.62 68.47V67.99L313.46 66.65L313.73 66.55L313.49 66.44L313.02 66.5H312.59L312.36 66.3H312.54L313.03 66.1L312.84 65.9L312.38 65.71L312.01 65.97V65.74L311.86 65.52L311.42 66.08V65.7L310.85 66.25L310.91 65.99L311.14 65.66V65.51L310.94 65.7H310.69L310.62 65.86L310.3 66.02L310.17 66.42L310.04 66.16L310.31 65.78L309.89 65.9V66.17L309.79 66.26H309.52L309.72 66.46H309.55L309.36 66.33L309.24 66.42L309.32 66.68L309.2 66.6H309V66.36H308.75L308.65 66.48V66.67L308.53 66.77L308.16 66.83L307.98 67.12H308.2L308.25 67.27V67.37H308.06L307.91 67.27L307.71 67.39L307.79 67.05L306.79 67.96H306.91L307.96 67.58V67.8L307.86 67.87L307.72 67.79L306.94 68.92L306.88 69.22L306.6 69.28L306.55 69.94L306.08 70.08L306.28 70.32L305.85 70.54L305.46 71.11L305.26 70.94V71.17L304.72 71.47L304.91 71.63H304.6L304 72H303.86L303.7 72.19L303.84 72.39L303.73 73.13L303.92 73.19L304.17 73.08L304.24 73.2L304.05 73.38H303.91L303.79 73.5V73.74H304.18L304 74L304.38 74.33L304.8 74.44L305.46 73.86L305.71 73.8L305.8 73.5L306.68 75.96H306.96L307.2 75.58H307.5L307.71 75.39L307.83 75.45L308 75H307.87L307.92 74.14L308.66 73.2L308.32 72.78L308.07 72.71L308.02 72.25L308.67 71.02L309.56 70.3V69.9L309.69 69.57L309.93 69.35L310.5 69.3L310.79 69.43L310.92 69.74L309.48 71.32V72.72L310.43 73.08L311.87 72.7L312.04 72.45L311.87 72.7L312.02 72.64L312.25 72.9L312.56 72.97L310.44 73.49L310.22 73.73L310.3 73.98L310.51 74.12L310.58 74.28V74.68L310.28 74.84L309.96 74.43L309.62 74.62L309.42 75.34V75.9L309.48 75.96L309.36 76.18H308.95V76.28L308.75 76.4L308.58 76.15L307.14 76.75L306.92 76.63V76.39L306.19 76.77L305.62 76.41L305.45 76.11H305.89L305.76 75.86H305.6L305.7 75.6L305.93 75.46L305.76 75.27V74.64L305.28 74.94V75.12L305 75L304.82 75.3L305.17 76.83L305.02 76.99H304.48V77.07L304.03 77.14L303.89 77.42H303.72L303.55 77.52L303.1 78.24L302.73 78.41L301.91 79.41L301.46 79.24L301.25 79.41L301.3 79.84H301L300.78 79.72H300.43L300.21 79.92V80.17L301 80.42L301.49 81.26L301.27 82.49L299.02 82.33L298.72 82.55V85.55H299.47L299.9 86.01L300 86L301 85.81L301.93 84.81V84.21L302.93 83.36L303.08 83.02V82.91L303.38 82.5L304.03 82.65L305.09 82L307.56 84.28V85.04L307.95 84.45L307.79 84.14L308.13 83.95H308.4L306.4 81.95V81.54L306.56 81.3H306.79L306.91 81.59L307.19 81.72L307.51 82.28L308.71 83.07L308.78 82.87L308.71 83.07L308.8 83.92L309.04 84.26L309.24 84.61L309.81 84.82H309.43L309.69 85.44L310.03 85.61L310 85.2H310.25L310.09 85.05L310.22 84.96H310.48L310.36 84.63H310.06L310.18 84.41L309.89 83.96L310.07 83.84H310.36L310.43 83.53L310.65 83.61L310.92 83.45L311.37 83.68L311.71 83.44L312.19 83.38L311.92 83.13L311.71 82.52L312.07 82.08V81.86L312.44 81.3L312.92 80.57L313.32 80.49V80.76L313.91 80.84L313.43 81.15L313.79 81.33V81.64L314.91 81.29L314.54 81.19L314.25 80.87L315.82 80.24L315.38 80.55L315.51 80.77L315.01 81.29L316.62 82.5L316.75 82.92L316.67 83.06L315.37 83.36L314.09 82.91L312.2 83.39L312.02 83.71L311.27 83.8L311.19 84.1L311.34 84.21V85.02L311.76 85.38L311.94 85.44L312.16 85.69L312.92 85.43L313.41 85.74L313.78 85.66L314.12 85.41L314.4 85.48L314.67 85.39L314.34 87L314.53 87.09V87.33V87.09L314.34 87.01L314 88L310.81 87.77L309.81 87.33L309.01 87.81L309.06 88.34L307.84 88.1L307.25 87.59L306.19 87.37L305.62 86.93L305.9 86.64L305.98 85.74L305.93 85.59L302.53 85.81L301.28 86.58L299.93 86.26L299.53 87.09L298.99 87.4L298.52 88.14V88.76L295.92 92.76L296.2 93.87L295.94 95.35L296 96V96.24V96.43L299.09 99.69L300.92 99.46L301.19 99.56L303.05 98.75L303.59 98.89L304.12 99.65L305.02 99.48L305.17 99.7L305.44 99.76L305.54 100.16L305.47 100.52L305.38 101.06L305.32 101.14L305.46 101.35L305.12 101.78L306.7 104.78L306.64 105.21L306.87 106.06L306.12 108.59L308.4 116L308.74 116.27L311.15 115.72L313.26 113.32L313.45 112.44L313.31 112.28L314.31 111.48L314.17 109.55L316.29 107.41L315.62 103.85L320.12 96.43L319.89 96.29L317.43 96.78L317.24 96.55L317.19 96.62L317.24 96.55L317.05 96.47L317.26 96.27L313.35 88.46L313.96 89.46L314.18 88.88L317.3 95.88L320.22 94.79L320.57 94.37L321.57 94.05L321.71 93.73L322.11 93.64L322.35 93.26L322.58 93.13L322.7 92.57L323.3 91.85V91.63L322.99 91.2L322.39 90.96L322.09 90.02L321.66 90.58L320.54 91.1H320.47L320.32 90.84V90.2L320.08 90.6L319.14 88.6V88.53L319.81 88.35L320.38 89.35L321.65 89.93L322.23 89.73L322.51 90.26L325.99 90.48L326.23 90.98L326.94 91.51H327.34L326.84 91.72L327.61 92.41L328.11 91.76L329.83 97.76L330.51 97.11L331.07 94.47L333.14 92.55L333.25 92.12L334.75 91.4L335.75 93.4L335.7 94.06L335.85 94.28H336.21L336.52 93.86L336.71 94.02L338.2 99.71L339.26 100.47L339 99L337.46 97L337.71 95.5L338.02 95.39L338.71 95.87L338.81 96.24H339.04V96.46H339.33L339.53 96.66L339.43 97.02L339.61 97.18L340.13 96.51L340.86 96.18L341.14 95.63L341.06 94.63L339.86 92.57L340.58 91.71L341.22 91.64L341.4 92.17L341.5 91.99L342.73 91.14L343.73 91.02L344.97 89.8V89.4L345.23 89.26L345.93 87.96L345.43 87.75L345.82 87.53L345.27 87.05H345.8L345.15 86L344.83 85.75L345.18 85.14L346.02 84.69L345.81 84.43L345.45 84.28L344.96 84.65L344.73 84.32L344.35 84.19V83.67L345.87 82.87L345.56 83.76H345.82L346.5 83.31H346.68L347.1 83.54L346.88 83.99L346.95 84.24L347.13 84.34L347.42 84.27H347.5L347.62 84.49L347.51 85.82L348.58 85.37L348.73 85.19L348.25 83.91L347.92 83.57L348.03 83.2L348.67 82.74L348.8 82.24L349.31 81.71L349.61 81.51L350.04 81.77L352.43 78.96L353.11 76.17L352.46 75.53H352.14L351.91 75.84H351.7V75.43L351.47 75.73L351.42 75.31H351V75L354 72.35L356.53 72.15L357.07 72.35L356.88 72.62L358.29 72.34L358.14 72.21V71.86L359.14 70.74L359.76 70.66L360 70.77L360.27 70.64L360.09 71.03L360.3 71.19L360.2 71.36L361.27 70.79L361.35 70.38L361.99 70.11V70.21L359.34 73.11L358.99 73.2L358.52 74.67L358.94 77.2L359.52 76.57L359.6 76.14L359.85 75.95L360.13 75.88V75.53L360.48 75.14L360.93 75.04L360.86 74.63L361.13 74.12H361.42L361.24 73.85L361.31 73.16H361.07L361.02 72.73L361.62 71.82H361.95L362.09 71.89L362.46 71.48L362.54 71.84L362.89 71.61L363.82 71.51L364.1 71.76L364.25 71.51L366.7 70H367.44V69.67L366.63 68.61L366.32 68.54L366.69 68.41L366.89 68.61H367.31L367.81 68.31L367.92 68.09L367.85 67.85V67.64L367.99 67.5H368.19V67.72L368.32 68L369.32 68.2L369.58 68.55L370.15 68.79H370.59L370.42 68.56H370.6V67.94L370.71 67.89L370.65 67.88Z" fill="#808080"/>
<path d="M327.89 63.46L327.49 63.29L327.33 63.62L327.89 63.46Z" fill="#808080"/>
<path d="M330.76 63.56L330.48 63.7L330.76 63.56Z" fill="#808080"/>
<path d="M274.08 91.65L273.95 91.77L274.21 92.2L274.08 91.65Z" fill="#808080"/>
<path d="M279.821 97.86L280.091 97.81L280.071 97.58L279.811 97.67L279.821 97.86Z" fill="#808080"/>
<path d="M340.7 102.11L340.51 102.21L340.7 102.11Z" fill="#808080"/>
<path d="M346.3 104.38L346.42 104.25L344.95 104.46L345.55 104.57L346.3 104.38Z" fill="#808080"/>
<path d="M344.111 104.27L343.771 104.32L343.601 104.55L344.131 104.63L344.651 104.45L344.111 104.27Z" fill="#808080"/>
<path d="M346.86 104.82L346.95 104.71L347.76 104.27L347.21 104.29L346.57 104.65L346.4 105.12L346.86 104.82Z" fill="#808080"/>
<path d="M348.03 102.14L349.01 102.39L348.75 101.97L348.03 102.14Z" fill="#808080"/>
<path d="M345.33 105.05L344.65 104.86L344.98 105.03L345.33 105.05Z" fill="#808080"/>
<path d="M347.28 102.17L347.73 102.3L347.28 102.17Z" fill="#808080"/>
<path d="M344.601 101.92L344.981 103.24L345.161 102.83L345.121 102.08L345.361 102.24L345.551 102.66L345.881 102.7L345.711 101.56L346.271 101.1L345.511 101.36L345.061 100.97L346.921 100.2L346.531 100.38L345.601 100.28L345.151 100.5L344.601 101.92Z" fill="#808080"/>
<path d="M348.09 100.21L347.84 100.06L348.03 100.96L348.31 100.32L348.09 100.21Z" fill="#808080"/>
<path d="M336.62 100.39L336.85 100.71L336.62 100.39Z" fill="#808080"/>
<path d="M337.15 101.43L337.32 101.65L337.15 101.43Z" fill="#808080"/>
<path d="M342.94 104.42L343.38 104.43L343.01 104.18L342.37 104.08L342.74 103.79L339.9 103.49L339.72 103.73L340 103.79L340.19 104.02L342.94 104.42Z" fill="#808080"/>
<path d="M340.91 100.64L341.77 102.16L342.06 102.31L342.55 102.24L343.02 102.48L343.55 102.37L344.05 100.81L344.61 100.45L344.14 99.13L344.76 98.67L344.51 98.44L344.18 98.34L343.85 98.03L343.28 98.85L343.09 98.95L342.83 98.91L342.51 99.49L341.97 99.68L341.73 100.21L341.15 100.06L340.91 100.64Z" fill="#808080"/>
<path d="M339.85 102.73L339.91 102.3L340.06 102.2L340.07 101.95L339.77 101.62L339.72 101.81L339.87 102L339.64 101.93L335.99 98.68L339.33 103.34H339.72L339.85 102.73Z" fill="#808080"/>
<path d="M307.18 84.94L306.74 84.95L306.44 85.13L307.22 85.62L307.46 84.96L307.18 84.94Z" fill="#808080"/>
<path d="M304.86 83.7L305.14 84.61L305.39 84.43L305.45 83.77L305.12 83.63L304.86 83.7Z" fill="#808080"/>
<path d="M265.33 78.9C265.347 80.0087 264.936 81.0813 264.181 81.8937C263.427 82.7062 262.387 83.1957 261.28 83.26C260.742 83.2604 260.209 83.1521 259.714 82.9418C259.219 82.7315 258.771 82.4234 258.397 82.0359C258.024 81.6484 257.732 81.1896 257.54 80.6868C257.349 80.1841 257.26 79.6478 257.28 79.11C257.26 78.0087 257.664 76.9417 258.408 76.13C259.153 75.3184 260.181 74.8243 261.28 74.75C261.823 74.7428 262.361 74.846 262.862 75.0533C263.363 75.2607 263.817 75.5677 264.196 75.9559C264.575 76.3441 264.87 76.8053 265.065 77.3114C265.26 77.8175 265.351 78.358 265.33 78.9Z" fill="#F9D48E"/>
<path d="M271.62 96.37C271.621 96.8803 271.427 97.3716 271.077 97.7434C270.728 98.1152 270.249 98.3394 269.74 98.37C269.489 98.3701 269.241 98.3198 269.01 98.2221C268.779 98.1244 268.571 97.9813 268.396 97.8012C268.222 97.6212 268.085 97.4079 267.995 97.1741C267.904 96.9402 267.862 96.6906 267.87 96.44C267.869 95.9313 268.062 95.4414 268.409 95.0698C268.757 94.6983 269.233 94.4731 269.74 94.44C269.991 94.4399 270.24 94.4901 270.471 94.5877C270.703 94.6853 270.912 94.8283 271.087 95.0082C271.263 95.1881 271.4 95.4013 271.492 95.6352C271.583 95.8691 271.627 96.1189 271.62 96.37Z" fill="#F9D48E"/>
<path d="M317.31 95.07C317.332 96.9432 316.623 98.751 315.332 100.109C314.042 101.467 312.272 102.267 310.4 102.34C309.486 102.344 308.58 102.165 307.736 101.813C306.892 101.461 306.127 100.944 305.487 100.291C304.846 99.6385 304.343 98.8641 304.007 98.0137C303.671 97.1633 303.509 96.2541 303.53 95.34C303.508 93.4735 304.212 91.6713 305.494 90.3146C306.776 88.9579 308.535 88.1529 310.4 88.07C311.318 88.0617 312.227 88.2378 313.075 88.5878C313.923 88.9378 314.692 89.4546 315.337 90.1075C315.981 90.7604 316.488 91.536 316.827 92.3885C317.166 93.241 317.33 94.1528 317.31 95.07Z" fill="#F9D48E"/>
<path d="M330.86 68.42C330.866 69.2305 330.556 70.0115 329.996 70.5976C329.436 71.1837 328.67 71.5288 327.86 71.56C327.462 71.574 327.066 71.5059 326.696 71.3601C326.326 71.2143 325.989 70.9938 325.708 70.7124C325.426 70.431 325.206 70.0947 325.06 69.7244C324.914 69.3541 324.846 68.9577 324.86 68.56C324.857 67.7502 325.168 66.9706 325.727 66.3851C326.286 65.7995 327.051 65.4536 327.86 65.42C328.258 65.4075 328.653 65.4766 329.023 65.6229C329.393 65.7692 329.728 65.9898 330.009 66.2709C330.29 66.552 330.511 66.8877 330.657 67.2573C330.804 67.6269 330.873 68.0226 330.86 68.42Z" fill="#F9D48E"/>
<path d="M338.101 86.13C338.109 87.0529 337.758 87.9429 337.121 88.6112C336.485 89.2795 335.613 89.6736 334.691 89.71C334.241 89.7154 333.795 89.6305 333.378 89.4603C332.962 89.2901 332.584 89.0381 332.267 88.7191C331.95 88.4002 331.7 88.0209 331.533 87.6036C331.365 87.1863 331.283 86.7397 331.291 86.29C331.285 85.3705 331.636 84.4844 332.27 83.8186C332.904 83.1527 333.772 82.7588 334.691 82.72C335.141 82.7119 335.588 82.7945 336.005 82.963C336.422 83.1315 336.802 83.3824 337.12 83.7006C337.438 84.0189 337.689 84.3981 337.858 84.8155C338.026 85.2329 338.109 85.6799 338.101 86.13Z" fill="#F9D48E"/>
<path d="M352.26 65.85C352.264 66.6422 351.961 67.4051 351.415 67.9792C350.869 68.5532 350.122 68.8939 349.33 68.93C348.946 68.9381 348.565 68.8688 348.208 68.7261C347.852 68.5835 347.527 68.3705 347.255 68.0999C346.982 67.8292 346.767 67.5065 346.622 67.1509C346.477 66.7952 346.405 66.414 346.41 66.03C346.417 65.2473 346.724 64.497 347.267 63.9334C347.81 63.3698 348.549 63.0358 349.33 63C349.712 62.9879 350.092 63.0528 350.447 63.1907C350.803 63.3286 351.127 63.5368 351.401 63.8028C351.674 64.0688 351.891 64.3871 352.039 64.7389C352.187 65.0906 352.262 65.4685 352.26 65.85Z" fill="#F9D48E"/>
<path d="M165.71 491C188.514 491 207 485.507 207 478.73C207 471.953 188.514 466.46 165.71 466.46C142.906 466.46 124.42 471.953 124.42 478.73C124.42 485.507 142.906 491 165.71 491Z" fill="#F9D48E"/>
<path opacity="0.5" d="M165.71 491C188.514 491 207 485.507 207 478.73C207 471.953 188.514 466.46 165.71 466.46C142.906 466.46 124.42 471.953 124.42 478.73C124.42 485.507 142.906 491 165.71 491Z" fill="white"/>
<path d="M121.91 331.62C121.91 331.62 123.62 346.74 124.35 354.55C125.08 362.36 127.03 384.55 126.79 387.24C126.55 389.93 124.11 417.81 124.11 428.54C124.11 439.27 125.57 454.4 125.57 454.4C125.57 454.4 123.13 458.54 123.62 460.74C124.112 462.578 124.447 464.455 124.62 466.35C124.674 467.342 124.838 468.325 125.11 469.28C125.11 469.28 128.77 471.72 130.97 471.96C133.17 472.2 137.55 470.74 137.55 470.01C137.55 469.28 139.5 461.96 139.5 459.27C139.5 456.58 139.5 457.57 140.24 453.91C140.98 450.25 148.77 399.68 149.75 395.04C150.73 390.4 152.19 355.53 152.19 355.53L153.9 358.7C153.9 358.7 158.04 396.02 157.8 400.17C157.56 404.32 156.09 420.17 156.8 427.49C157.51 434.81 159 452.86 159 454.81C159 456.76 158.51 461.15 158.51 462.86C158.51 464.57 157.05 467.25 157.78 468.47C158.379 469.642 158.868 470.868 159.24 472.13C159.24 472.13 168.03 473.59 170.46 473.59C172.89 473.59 174.86 471.4 174.86 471.4V467.25C174.86 465.05 175.34 463.1 175.34 460.91C175.34 458.72 175.59 454.08 175.59 450.66C175.743 447.391 176.077 444.132 176.59 440.9C176.84 438.71 180.25 413.1 180.74 403.58C181.23 394.06 183.42 372.58 183.42 369.19C183.42 365.8 183.18 333.82 183.18 333.82L182.69 327.96C182.69 327.96 157.08 331.38 144.88 329.67C132.68 327.96 122.68 327.47 122.68 327.47L121.91 331.62Z" fill="#263238" stroke="#263238" stroke-linecap="round" stroke-linejoin="round"/>
<path d="M138.48 466.13C137.902 466.635 137.219 467.004 136.48 467.21C135.14 467.61 134.33 467.88 133.26 466.4C132.19 464.92 130.03 463.18 128.26 463.98C126.49 464.78 124.5 465.98 124.1 466.98C123.7 467.98 123.96 477.73 123.96 479.62C123.96 481.51 127.59 482.3 131.22 482.44C133.509 482.468 135.755 481.814 137.67 480.56C137.67 480.56 140.76 480.82 141.84 479.48C142.92 478.14 142.38 475.04 141.7 473.97C141.02 472.9 140.5 471.97 139.55 470.07C138.961 468.831 138.598 467.497 138.48 466.13Z" fill="white" stroke="#263238" stroke-linecap="round" stroke-linejoin="round"/>
<path d="M141.84 479.44C142.2 478.925 142.405 478.318 142.43 477.69C140.66 478.5 138.57 477.99 137.81 478.1C136.87 478.23 134.72 479.71 129.88 479.44C127.833 479.369 125.817 478.911 123.94 478.09C123.94 478.75 123.94 479.27 123.94 479.58C123.94 481.46 127.57 482.26 131.2 482.4C133.489 482.428 135.735 481.774 137.65 480.52C137.65 480.52 140.76 480.78 141.84 479.44Z" fill="#F9D48E" stroke="#263238" stroke-linecap="round" stroke-linejoin="round"/>
<path d="M137.13 480.52L137.67 474.06" stroke="#263238" stroke-linecap="round" stroke-linejoin="round"/>
<path d="M134.35 467.4C133.895 467.175 133.511 466.829 133.24 466.4C132.16 464.92 130.01 463.18 128.24 463.98C126.827 464.574 125.531 465.414 124.41 466.46C124.99 468.12 126.41 471.05 129.18 471.24C131.48 471.4 133.24 469.41 134.35 467.4Z" fill="#F9D48E" stroke="#263238" stroke-linecap="round" stroke-linejoin="round"/>
<path d="M175 469.2C175 469.2 173 469.74 171.91 469.07C170.82 468.4 169.22 464.37 165.59 464.77C161.96 465.17 160.35 468.53 159.59 468.94C158.83 469.35 158.65 469.47 158.38 469.88C158.11 470.29 157.98 481.17 158.11 482.25C158.24 483.33 165.91 484.39 170.62 483.86C175.33 483.33 176.93 481.3 177.34 481.03C178.003 480.771 178.58 480.333 179.008 479.764C179.435 479.195 179.696 478.519 179.76 477.81C180.03 475.39 179.22 472.7 177.87 471.76C177.016 471.157 176.21 470.489 175.46 469.76L175 469.2Z" fill="white" stroke="#263238" stroke-linecap="round" stroke-linejoin="round"/>
<path d="M169.8 480.76C165.806 480.886 161.823 480.276 158.05 478.96C158.05 480.58 158.05 481.9 158.05 482.25C158.19 483.32 165.85 484.39 170.56 483.86C175.27 483.33 176.87 481.3 177.28 481.03C177.942 480.771 178.52 480.333 178.947 479.764C179.375 479.195 179.635 478.519 179.7 477.81C179.755 477.205 179.755 476.595 179.7 475.99C179.5 476.4 179.27 476.84 179.01 477.27C178.27 478.61 176.25 480.63 169.8 480.76Z" fill="#F9D48E" stroke="#263238" stroke-linecap="round" stroke-linejoin="round"/>
<path d="M175.08 476.17L174.3 482.83" stroke="#263238" stroke-linecap="round" stroke-linejoin="round"/>
<path d="M166 472.7C168.41 472.98 171 471.07 172.44 469.29C172.253 469.244 172.074 469.17 171.91 469.07C170.83 468.4 169.22 464.37 165.59 464.77C161.96 465.17 160.35 468.53 159.59 468.94C159.58 468.94 162.54 472.3 166 472.7Z" fill="#F9D48E" stroke="#263238" stroke-linecap="round" stroke-linejoin="round"/>
<path d="M152.16 355.53L146.3 352.6" stroke="#636363" stroke-linecap="round" stroke-linejoin="round"/>
<path d="M164.54 217.89C164.54 217.89 166.01 215.45 166.54 218.62C167.07 221.79 165.8 225.2 164.1 226.42C162.4 227.64 161.66 226.42 161.66 225.2C161.66 223.98 164.54 217.89 164.54 217.89Z" fill="white" stroke="#263238" stroke-linecap="round" stroke-linejoin="round"/>
<path d="M136 219.11C135.672 218.986 135.318 218.951 134.972 219.008C134.626 219.064 134.301 219.211 134.029 219.433C133.758 219.655 133.55 219.944 133.425 220.272C133.301 220.599 133.265 220.954 133.32 221.3C133.32 224.23 137.22 228.38 138.93 227.4C140.64 226.42 136 219.11 136 219.11Z" fill="white" stroke="#263238" stroke-linecap="round" stroke-linejoin="round"/>
<path d="M150.15 190.56C150.15 190.56 146.34 196.9 142.35 198.61C137.22 200.81 133.08 207.4 133.35 212.76C133.62 218.12 141.4 235.69 142.62 236.18C143.84 236.67 159.21 235.45 159.7 234.72C160.19 233.99 162.38 226.67 164.33 219.59C166.28 212.51 166.28 208.86 166.28 208.86C166.989 206.572 167.326 204.185 167.28 201.79C167.131 198.904 166.014 196.153 164.11 193.98L161.18 197.64L162.18 189.35C160.151 189.107 158.097 189.532 156.33 190.56C154.595 191.712 153.035 193.11 151.7 194.71L150.15 190.56Z" fill="#263238" stroke="#263238" stroke-linecap="round" stroke-linejoin="round"/>
<path d="M235.77 197.16C235.41 196.07 234.32 196.07 233.41 193.71C232.5 191.35 229.96 191.9 229.23 191.53C228.5 191.16 228.51 190.81 228.87 189.72C229.23 188.63 230.14 185 228.51 185C226.88 185 225.6 188.81 225.24 189.72C224.244 191.356 223.152 192.932 221.97 194.44C221.196 194.633 220.406 194.754 219.61 194.8C218.71 194.8 217.61 196.62 217.44 197.52C217.32 198.09 218.2 199.94 218.88 201.24C219.184 202.321 219.552 203.382 219.98 204.42C219.98 204.42 220.88 205.69 223.61 205.33C226.34 204.97 231.41 208.6 232.14 208.05C232.87 207.5 234.5 204.24 235.22 202.43C235.908 200.763 236.099 198.933 235.77 197.16Z" fill="white" stroke="#263238" stroke-linecap="round" stroke-linejoin="round"/>
<path d="M118.36 348.87C118.36 348.87 121.66 353.87 121.84 355.81C122.02 357.75 122.01 361.37 122.18 362.58C122.35 363.79 121.66 364.67 120.8 364.67C120.517 364.643 120.244 364.55 120.002 364.399C119.761 364.248 119.558 364.043 119.41 363.8C119.511 364.795 119.684 365.781 119.93 366.75C120.27 367.97 122.18 369.01 122.01 370.22C121.84 371.43 119.93 371.96 117.32 371.96C115.745 371.95 114.208 371.468 112.909 370.577C111.61 369.686 110.607 368.426 110.03 366.96C108.47 363.32 106.91 352.9 106.91 350.96C106.91 349.02 116.63 347.48 118.36 348.87Z" fill="white" stroke="#263238" stroke-linecap="round" stroke-linejoin="round"/>
<path d="M114.72 355.29C114.72 355.29 115.41 356.85 114.02 359.29C113.081 360.732 112.378 362.315 111.94 363.98C112.327 365.192 112.85 366.356 113.5 367.45C114.2 368.84 116.5 368.67 116.63 369.89C116.754 370.545 116.629 371.222 116.28 371.79" stroke="#263238" stroke-linecap="round" stroke-linejoin="round"/>
<path d="M116.91 362.72C117.067 364.084 117.379 365.426 117.84 366.72C118.54 368.46 122.18 369.5 120.84 371.41" stroke="#263238" stroke-linecap="round" stroke-linejoin="round"/>
<path d="M114.72 363.45C114.886 364.579 115.178 365.686 115.59 366.75C116.11 367.75 119.59 368.83 118.89 371.61" stroke="#263238" stroke-linecap="round" stroke-linejoin="round"/>
<path d="M119.41 363.8C119.41 363.8 119.06 361.02 118.89 359.98C118.766 358.985 118.706 357.983 118.71 356.98" stroke="#263238" stroke-linecap="round" stroke-linejoin="round"/>
<path d="M176.36 242.33C171.795 238.763 166.442 236.339 160.75 235.26C150.99 233.31 138.06 236.48 132.94 239.89C131.412 240.96 130.124 242.338 129.158 243.934C128.192 245.53 127.569 247.31 127.33 249.16L176.36 242.33Z" fill="white" stroke="#263238" stroke-linecap="round" stroke-linejoin="round"/>
<path d="M216.61 212.57C216.349 211.614 216.349 210.606 216.61 209.65C217.1 208.65 217.34 205.74 218.07 205.01C218.8 204.28 224.17 201.35 228.07 203.06C231.97 204.77 233.93 212.06 234.66 213.79C235.39 215.52 233.2 219.4 232.22 219.89C231.24 220.38 230.27 216.96 229.29 215.99C228.31 215.02 220 211.11 216.61 212.57Z" fill="white" stroke="#263238" stroke-linecap="round" stroke-linejoin="round"/>
<path d="M152.21 241.85C151.21 242.09 132.69 244.53 124.4 246.97C116.11 249.41 109.28 252.58 109.03 255.75C108.78 258.92 102.03 318.01 101.77 321.43C101.51 324.85 103.97 344.6 105.19 345.33C106.41 346.06 112.02 346.55 113.97 345.82C115.183 345.346 116.268 344.597 117.14 343.63L117.87 327.28C117.87 327.28 118.36 332.89 119.33 333.14C131.499 336.334 144.127 337.406 156.66 336.31C177.66 334.6 186.42 331.43 188.12 330.21C189.82 328.99 189.59 325.33 189.59 325.33C189.59 325.33 189.83 322.65 189.83 319.96C189.83 317.27 182 263.31 182 263.31C182 263.31 214.2 254.53 216.64 251.6C219.08 248.67 230.79 216.72 230.79 214.28C230.79 211.84 225.42 208.18 221.52 207.94C217.62 207.7 208.1 226.94 205.91 228.43C203.72 229.92 182.73 238.19 174.91 239.65C167.09 241.11 152.21 241.85 152.21 241.85Z" fill="#F9D48E" stroke="#263238" stroke-linecap="round" stroke-linejoin="round"/>
<path d="M144.48 258.38C144.48 258.38 147.78 271.38 157.48 276.69" stroke="#263238" stroke-linecap="round" stroke-linejoin="round"/>
<path d="M158.76 282.45C159.493 282.83 160.243 283.2 161.01 283.56" stroke="#263238" stroke-linecap="round" stroke-linejoin="round"/>
<path d="M144.48 271.86C147.702 275.132 151.305 278.006 155.21 280.42" stroke="#263238" stroke-linecap="round" stroke-linejoin="round"/>
<path d="M183.23 273.2L182 263.31L170 267.75L174.65 269.66C172.38 271.66 169.41 274.48 171.25 274.15C173.675 273.43 176.005 272.423 178.19 271.15L183.23 273.2Z" fill="#263238" stroke="#263238" stroke-linecap="round" stroke-linejoin="round"/>
<path d="M115.67 320.21C115.67 315.82 117.81 271.12 117.81 271.12L117.08 267.95L111.67 259.33L114.55 276C112.26 275.29 107.65 274.07 109.39 276.4C111.004 278.358 112.836 280.126 114.85 281.67L113.21 314.73C113.072 317.49 113.747 320.229 115.15 322.61L116.83 325.47C116.066 323.822 115.67 322.027 115.67 320.21Z" fill="#263238" stroke="#263238" stroke-linecap="round" stroke-linejoin="round"/>
<path d="M116.83 325.51C117.097 326.135 117.433 326.729 117.83 327.28L116.83 325.51Z" fill="#263238" stroke="#263238" stroke-linecap="round" stroke-linejoin="round"/>
<path d="M188.61 324.11C151.29 340.94 117.87 327.28 117.87 327.28C117.87 327.28 118.36 332.89 119.33 333.14C131.499 336.334 144.127 337.406 156.66 336.31C177.66 334.6 186.42 331.43 188.12 330.21C189.82 328.99 189.59 325.33 189.59 325.33C189.59 325.33 189.59 324.77 189.69 323.9L188.61 324.11Z" fill="white" stroke="#263238" stroke-linecap="round" stroke-linejoin="round"/>
<path d="M102.5 342.89C102.5 342.89 108.11 345.33 112.75 343.89C117.39 342.45 118.6 340.96 119.33 341.21C120.06 341.46 120.07 347.3 119.33 349.01C118.59 350.72 116.89 351.94 111.77 352.43C106.65 352.92 103.97 350.43 103.48 349.01C103.024 346.993 102.697 344.949 102.5 342.89Z" fill="white" stroke="#263238" stroke-linecap="round" stroke-linejoin="round"/>
<path d="M82.3193 476.81C102.362 476.81 118.609 471.769 118.609 465.55C118.609 459.331 102.362 454.29 82.3193 454.29C62.2769 454.29 46.0293 459.331 46.0293 465.55C46.0293 471.769 62.2769 476.81 82.3193 476.81Z" fill="#F9D48E"/>
<path opacity="0.5" d="M82.3193 476.81C102.362 476.81 118.609 471.769 118.609 465.55C118.609 459.331 102.362 454.29 82.3193 454.29C62.2769 454.29 46.0293 459.331 46.0293 465.55C46.0293 471.769 62.2769 476.81 82.3193 476.81Z" fill="white"/>
<path d="M88.05 209.94C88.05 209.94 91.05 213.5 90.9 214.94C90.7822 216.557 91.1663 218.17 92 219.56C92.71 220.45 94.67 221.16 94.67 222.76C94.6035 223.841 94.2325 224.881 93.6 225.76C93.6 225.76 94.32 232.89 93.6 234.67C92.88 236.45 90.04 236.45 88.44 236.45C86.84 236.45 85.95 236.27 85.44 236.27C84.93 236.27 81.7 233.42 79.21 227.19C76.72 220.96 79.57 211.69 81.7 210.45C83.83 209.21 88.05 209.94 88.05 209.94Z" fill="white" stroke="#263238" stroke-linecap="round" stroke-linejoin="round"/>
<path d="M86.8096 220.81L94.1096 216.71" stroke="#263238" stroke-linecap="round" stroke-linejoin="round"/>
<path d="M90.8994 216C90.8994 216 94.8194 214.93 93.3994 220.63" stroke="#263238" stroke-linecap="round" stroke-linejoin="round"/>
<path d="M80.2493 241.89L79.1393 255.14L65.0693 251.82V241.33C65.0693 241.33 74.9993 239.12 80.2493 241.89Z" fill="white" stroke="#263238" stroke-linecap="round" stroke-linejoin="round"/>
<path d="M78.7994 204C76.189 204.672 73.4773 204.858 70.7994 204.55C66.6794 204 57.6194 205.1 55.1494 211.15C52.6794 217.2 55.6994 222.68 55.4194 224.33C55.1394 225.98 50.7494 228.45 50.7494 230.93C50.7494 233.41 52.6694 235.6 51.8494 237.52C51.0294 239.44 49.6494 241.09 50.7494 243.01C51.8494 244.93 56.2494 241.64 56.7494 243.56C57.2494 245.48 61.4194 247.96 63.3494 247.96C65.2794 247.96 67.4694 243.84 68.5694 245.48C69.6694 247.12 71.8594 248.78 74.0594 248.48C76.2594 248.18 77.3494 243.13 82.0594 245.18C86.7694 247.23 88.2694 242.94 88.0594 239.18C87.8994 235.6 83.6694 230.66 84.4894 227.91C85.3094 225.16 86.9594 223.24 86.4094 220.22C85.8594 217.2 83.4094 216.1 84.7594 213.9C86.1094 211.7 88.0594 211.71 88.6094 208.96C89.1594 206.21 88.0594 202.64 83.9394 202.09C79.8194 201.54 78.7994 204 78.7994 204Z" fill="white" stroke="#263238" stroke-linecap="round" stroke-linejoin="round"/>
<path d="M53.9991 344.3C53.9991 344.3 57.8691 366.38 55.9391 387.64C55.1591 396.17 50.9391 398.41 49.8591 409.72C48.7791 421.03 52.6191 443.95 50.6891 456.1C50.4291 457.76 48.4791 461.9 50.6891 464.1C52.8991 466.3 60.6291 464.93 62.8391 464.93C65.0491 464.93 70.2891 464.1 70.8391 462.72C71.3891 461.34 67.5291 459.96 65.0491 455.27C62.2263 449.902 60.7119 443.944 60.6291 437.88C60.6291 431.53 64.4891 413.59 67.5291 398.96C70.5691 384.33 72.2191 376.32 72.2191 368.04V342.04C72.2191 340.66 64.7691 337.35 58.9691 338.45C53.1691 339.55 53.9991 344.3 53.9991 344.3Z" fill="white" stroke="#263238" stroke-linecap="round" stroke-linejoin="round"/>
<path d="M65.0691 455.27C64.6391 454.47 64.2391 453.61 63.8591 452.72C63.1391 454.24 62.8591 456.06 61.4791 456.38C58.9891 456.93 50.7091 456.1 50.7091 456.1C50.4391 457.76 48.4991 461.9 50.7091 464.1C52.9191 466.3 60.6491 464.93 62.8591 464.93C65.0691 464.93 70.3091 464.1 70.8591 462.72C71.4091 461.34 67.5491 460 65.0691 455.27Z" fill="#263238" stroke="#263238" stroke-linecap="round" stroke-linejoin="round"/>
<path d="M61.2595 444.16C60.8659 442.09 60.6618 439.988 60.6495 437.88C60.6495 431.53 64.5095 413.59 67.5495 398.96C70.5895 384.33 72.2395 376.32 72.2395 368.04V342.04C72.2395 340.66 64.7895 337.35 58.9895 338.45C53.1895 339.55 53.9895 344.25 53.9895 344.25C53.9895 344.25 57.8595 366.33 55.9295 387.59C55.1495 396.12 50.9295 398.36 49.8495 409.67C49.0495 417.89 50.8495 432.22 51.1795 444.11C54.4856 444.945 57.9453 444.962 61.2595 444.16Z" fill="#F9D48E" stroke="#263238" stroke-linecap="round" stroke-linejoin="round"/>
<path d="M50.4395 439C52.5302 439.428 54.649 439.705 56.7795 439.83C58.5721 439.709 60.3391 439.339 62.0295 438.73L62.8595 445.91C60.3419 446.655 57.7493 447.118 55.1295 447.29C53.7256 447.39 52.3163 447.199 50.9895 446.73C50.9895 446.73 50.4395 441.19 50.4395 439Z" fill="white" stroke="#263238" stroke-linecap="round" stroke-linejoin="round"/>
<path d="M50.9995 323.87C50.9995 323.87 49.3395 334.87 50.9995 340.43C52.6595 345.99 57.0695 353.69 58.1795 355.89C59.2895 358.09 60.6595 365 60.6595 366.38C60.6595 367.76 61.7595 384.05 60.1095 392.33C58.4595 400.61 56.5195 405.33 56.5195 413.33C56.5195 421.33 60.3795 451.22 60.3795 456.46C60.3795 461.7 58.4495 468.33 59.8295 469.71C61.2095 471.09 84.9495 468.28 87.1595 467.45C87.5807 467.292 87.9601 467.04 88.2684 466.713C88.5768 466.385 88.806 465.992 88.9384 465.562C89.0707 465.132 89.1026 464.677 89.0318 464.233C88.9609 463.789 88.789 463.367 88.5295 463C87.6995 461.9 77.7595 458.64 76.1095 457.26C74.4595 455.88 73.3495 451.46 73.1095 449.53C72.8695 447.6 73.6595 417.99 74.7695 411.37C75.8795 404.75 80.2895 391.77 82.7695 384.59C85.2495 377.41 89.6695 352.02 89.6695 342.91C89.6735 337.47 89.3998 332.033 88.8495 326.62C88.8495 326.62 63.1295 328.56 50.9995 323.87Z" fill="white" stroke="#263238" stroke-linecap="round" stroke-linejoin="round"/>
<path d="M87.1491 467.43C87.568 467.273 87.9454 467.022 88.2527 466.696C88.5599 466.371 88.7888 465.98 88.9219 465.552C89.055 465.125 89.0888 464.673 89.0207 464.231C88.9526 463.788 88.7845 463.367 88.5291 463C87.6991 461.9 77.7591 458.64 76.1091 457.26C75.8476 457.033 75.6188 456.77 75.4291 456.48L74.7291 460.85C73.0033 462.24 70.8646 463.017 68.6491 463.06C65.8891 463.06 61.8291 461.26 60.0991 460.43C59.6291 464.61 58.6491 468.79 59.8191 469.68C65.4291 474 84.9391 468.26 87.1491 467.43Z" fill="#263238" stroke="#263238" stroke-linecap="round" stroke-linejoin="round"/>
<path d="M72.9995 448.51C72.9195 443.23 73.6995 417.43 74.7095 411.38C75.8095 404.75 80.2295 391.78 82.7095 384.6C85.1895 377.42 89.6095 352.03 89.6095 342.92C89.6135 337.48 89.3398 332.043 88.7895 326.63C88.7895 326.63 63.1295 328.56 50.9995 323.87C50.9995 323.87 49.3395 334.87 50.9995 340.43C52.6595 345.99 57.0695 353.69 58.1795 355.89C59.2895 358.09 60.6595 365 60.6595 366.38C60.6595 367.76 61.7595 384.05 60.1095 392.33C58.4595 400.61 56.5195 405.33 56.5195 413.33C56.5195 419 58.4595 437.45 59.5895 447.47C62.7266 448.349 65.9546 448.862 69.2095 449C70.4879 448.989 71.7603 448.824 72.9995 448.51Z" fill="#F9D48E" stroke="#263238" stroke-linecap="round" stroke-linejoin="round"/>
<path d="M59.5492 450.92C61.393 451.645 63.3581 452.011 65.3392 452C68.6492 452 73.6192 452.82 73.3392 451.17C73.2529 448.773 73.3431 446.373 73.6092 443.99C73.6092 443.99 67.5392 444.82 63.9492 444.27C60.3592 443.72 58.1592 443.44 58.1592 443.44C58.1592 443.44 58.7192 449.27 59.5492 450.92Z" fill="white" stroke="#263238" stroke-linecap="round" stroke-linejoin="round"/>
<path d="M82.1795 258.17C79.3214 254.517 75.3454 251.9 70.8595 250.72C63.4095 248.79 56.2295 259.83 54.2995 265.9C52.3695 271.97 52.0895 288.26 49.2995 296.54C46.5095 304.82 44.6095 321.39 45.7095 323.32C46.8095 325.25 70.5595 331.32 78.8395 331.32C87.1195 331.32 95.9995 324.7 96.2595 321.39C96.5195 318.08 94.8795 296 93.4995 284.12C92.1195 272.24 82.1795 258.17 82.1795 258.17Z" fill="#263238" stroke="#263238" stroke-linecap="round" stroke-linejoin="round"/>
<path d="M78.4994 350C78.4994 350 78.4094 353.83 78.4994 356.08C78.5533 358.139 78.2695 360.193 77.6594 362.16C77.1894 363.65 76.0694 364.68 75.9794 363.65C75.8894 362.62 76.3494 360.75 76.3494 359.91C76.3494 359.07 76.0694 355.24 76.0694 355.24C75.8583 356.623 75.5779 357.995 75.2294 359.35C74.6694 361.5 73.0794 363.74 72.3294 363.93C71.5794 364.12 71.1094 363.46 71.4894 362.44C71.8694 361.42 72.7994 358.44 72.8894 357.76C72.9794 357.08 72.9994 355 72.9994 355C72.2918 357.138 71.4501 359.228 70.4794 361.26C69.7294 362.39 69.6394 362.95 68.8894 363.04C68.1394 363.13 68.2394 361.54 68.6994 360.33C69.2431 358.523 69.6509 356.678 69.9194 354.81C69.9194 354.44 69.0794 356.49 68.0494 357.62C67.0194 358.75 66.2694 359.67 65.7994 359.49C65.3294 359.31 65.9894 357.49 66.3694 356.68C66.81 355.697 67.1225 354.662 67.2994 353.6V351.17C67.2994 351.17 66.4594 349.29 70.3894 348.64C74.3194 347.99 77.6594 347.24 78.4994 350Z" fill="white" stroke="#263238" stroke-linecap="round" stroke-linejoin="round"/>
<path d="M64.7995 347.34C64.5602 348.027 64.5476 348.773 64.7636 349.468C64.9796 350.162 65.4128 350.77 65.9995 351.2C68.0595 352.58 75.4095 353.69 77.7595 351.48C79.0878 350.368 79.9308 348.783 80.1095 347.06L64.7995 347.34Z" fill="white" stroke="#263238" stroke-linecap="round" stroke-linejoin="round"/>
<path d="M66.9997 261.48C66.9997 261.48 60.9297 271.42 60.9297 277.77C60.9297 284.12 57.6097 328.56 57.3397 334.09C57.0697 339.62 57.6097 344.02 60.9297 346.78C64.2497 349.54 77.7597 349.54 81.3497 348.16C84.9397 346.78 88.2497 340.43 88.2497 336.02C88.2497 331.61 84.1097 299.02 83.2497 292.68C82.3897 286.34 82.1397 269.49 79.6597 265.63C77.1797 261.77 76.3397 261.48 76.3397 261.48" fill="#263238"/>
<path d="M66.9997 261.48C66.9997 261.48 60.9297 271.42 60.9297 277.77C60.9297 284.12 57.6097 328.56 57.3397 334.09C57.0697 339.62 57.6097 344.02 60.9297 346.78C64.2497 349.54 77.7597 349.54 81.3497 348.16C84.9397 346.78 88.2497 340.43 88.2497 336.02C88.2497 331.61 84.1097 299.02 83.2497 292.68C82.3897 286.34 82.1397 269.49 79.6597 265.63C77.1797 261.77 76.3397 261.48 76.3397 261.48" stroke="#263238" stroke-linecap="round" stroke-linejoin="round"/>
<path d="M57.9297 324.09C57.9297 324.09 59.6197 285.62 60.9297 277.77C61.7972 272.823 63.3206 268.014 65.4597 263.47" stroke="#636363" stroke-linecap="round" stroke-linejoin="round"/>
<path d="M78 263.83C78 263.83 82.77 273 83 282.83C83.23 292.66 86.59 324.08 86.59 324.08" stroke="#636363" stroke-linecap="round" stroke-linejoin="round"/>
<path d="M81.9092 273.35L82.7292 267.83" stroke="#636363" stroke-linecap="round" stroke-linejoin="round"/>
</svg>
