<svg width="120" height="120" viewBox="0 0 120 120" fill="none" xmlns="http://www.w3.org/2000/svg">
<path d="M59.9997 114.965C91.5661 114.965 117.156 100.191 117.156 81.9671C117.156 63.7431 91.5661 48.9695 59.9997 48.9695C28.4334 48.9695 2.84375 63.7431 2.84375 81.9671C2.84375 100.191 28.4334 114.965 59.9997 114.965Z" fill="#F0F0F0"/>
<path d="M25.476 88.7111C35.3721 88.7111 43.3944 84.269 43.3944 78.7895C43.3944 73.3099 35.3721 68.8679 25.476 68.8679C15.58 68.8679 7.55762 73.3099 7.55762 78.7895C7.55762 84.269 15.58 88.7111 25.476 88.7111Z" fill="#E0E0E0"/>
<path d="M14.5196 95.1599L42.5996 111.367C42.7433 111.439 42.902 111.477 43.0628 111.477C43.2236 111.477 43.3823 111.439 43.526 111.367L93.182 82.6967C93.2376 82.6774 93.2859 82.6413 93.32 82.5934C93.3542 82.5454 93.3725 82.488 93.3725 82.4291C93.3725 82.3702 93.3542 82.3128 93.32 82.2649C93.2859 82.2169 93.2376 82.1808 93.182 82.1615L65.102 65.9543C64.9587 65.8822 64.8005 65.8446 64.64 65.8446C64.4795 65.8446 64.3213 65.8822 64.178 65.9543L14.5196 94.6247C14.464 94.644 14.4157 94.6801 14.3816 94.7281C14.3474 94.776 14.3291 94.8334 14.3291 94.8923C14.3291 94.9512 14.3474 95.0086 14.3816 95.0566C14.4157 95.1045 14.464 95.1406 14.5196 95.1599Z" fill="#E0E0E0"/>
<path d="M92.3348 103.26C100.795 103.26 107.654 99.3004 107.654 94.416C107.654 89.5316 100.795 85.572 92.3348 85.572C83.8743 85.572 77.0156 89.5316 77.0156 94.416C77.0156 99.3004 83.8743 103.26 92.3348 103.26Z" fill="#E0E0E0"/>
<path d="M27.1894 86.9136C27.1369 86.9136 27.0849 86.9032 27.0364 86.883C26.9879 86.8629 26.9439 86.8333 26.9069 86.7961C26.8698 86.7588 26.8405 86.7146 26.8207 86.666C26.8008 86.6174 26.7907 86.5653 26.791 86.5128V60.888C26.791 60.7823 26.833 60.681 26.9077 60.6063C26.9824 60.5316 27.0838 60.4896 27.1894 60.4896C27.2951 60.4896 27.3964 60.5316 27.4711 60.6063C27.5458 60.681 27.5878 60.7823 27.5878 60.888V86.5128C27.5878 86.6187 27.5459 86.7203 27.4713 86.7953C27.3966 86.8704 27.2953 86.913 27.1894 86.9136Z" fill="#455A64"/>
<path d="M43.0436 77.5846C42.9649 77.5853 42.8878 77.5629 42.8217 77.5203C42.7556 77.4776 42.7034 77.4166 42.6716 77.3446L34.814 57.4559C34.7752 57.3575 34.777 57.2478 34.8191 57.1508C34.8612 57.0538 34.94 56.9775 35.0384 56.9387C35.1367 56.8998 35.2465 56.9017 35.3435 56.9437C35.4405 56.9858 35.5168 57.0647 35.5556 57.1631L43.4132 77.0399C43.437 77.1002 43.4458 77.1655 43.4387 77.2299C43.4315 77.2944 43.4088 77.3562 43.3724 77.4099C43.3359 77.4636 43.2869 77.5076 43.2296 77.538C43.1723 77.5685 43.1085 77.5845 43.0436 77.5846Z" fill="#455A64"/>
<path d="M42.0981 75.1968C42.0442 75.1968 41.9908 75.1856 41.9412 75.1642C41.8917 75.1427 41.8471 75.1114 41.8101 75.072L27.1869 59.5992L12.5925 75.0048C12.5572 75.0451 12.5141 75.0779 12.4658 75.1011C12.4175 75.1244 12.3651 75.1377 12.3115 75.1402C12.258 75.1427 12.2045 75.1344 12.1543 75.1157C12.104 75.0971 12.0581 75.0685 12.0191 75.0316C11.9802 74.9948 11.9491 74.9505 11.9277 74.9014C11.9063 74.8522 11.895 74.7993 11.8945 74.7457C11.8941 74.6921 11.9044 74.639 11.925 74.5895C11.9455 74.54 11.9758 74.4951 12.0141 74.4576L26.8941 58.7448C26.9315 58.7053 26.9765 58.6739 27.0264 58.6524C27.0764 58.6309 27.1302 58.6199 27.1845 58.62C27.2385 58.6202 27.2918 58.6314 27.3413 58.6529C27.3908 58.6743 27.4355 58.7056 27.4725 58.7448L42.3837 74.5248C42.4197 74.5627 42.4477 74.6073 42.4663 74.6561C42.485 74.7049 42.4937 74.7569 42.4922 74.8091C42.4906 74.8613 42.4787 74.9127 42.4573 74.9603C42.4358 75.0079 42.4051 75.0507 42.3669 75.0864C42.2948 75.1564 42.1986 75.1959 42.0981 75.1968Z" fill="#455A64"/>
<path d="M11.3346 77.5847C11.2844 77.5846 11.2347 77.5749 11.1882 77.5559C11.1394 77.5371 11.0947 77.5087 11.0569 77.4725C11.019 77.4363 10.9887 77.393 10.9677 77.345C10.9468 77.297 10.9355 77.2453 10.9346 77.1929C10.9338 77.1406 10.9433 77.0886 10.9626 77.0399L18.8202 57.1511C18.8591 57.0527 18.9354 56.9738 19.0324 56.9318C19.1294 56.8897 19.2391 56.8878 19.3374 56.9267C19.4358 56.9655 19.5147 57.0418 19.5568 57.1388C19.5988 57.2358 19.6007 57.3455 19.5618 57.4439L11.7042 77.3327C11.6749 77.4069 11.624 77.4705 11.5582 77.5155C11.4923 77.5604 11.4144 77.5845 11.3346 77.5847Z" fill="#455A64"/>
<path d="M42.5017 74.5824L43.5409 77.3232C43.5431 77.3463 43.5431 77.3697 43.5409 77.3928V77.4432C43.511 77.5174 43.4557 77.5787 43.3849 77.616C43.2868 77.6658 43.1782 77.6917 43.0681 77.6917C42.9581 77.6917 42.8495 77.6658 42.7513 77.616C42.6966 77.5885 42.6533 77.5426 42.6289 77.4864V77.4504L41.6689 74.88L42.5017 74.5824Z" fill="#344127"/>
<path d="M11.875 74.5824L10.8358 77.3232C10.8335 77.3463 10.8335 77.3697 10.8358 77.3928C10.8334 77.4095 10.8334 77.4265 10.8358 77.4432C10.864 77.5185 10.9197 77.5803 10.9918 77.616C11.0895 77.6657 11.1977 77.6917 11.3074 77.6917C11.4171 77.6917 11.5252 77.6657 11.623 77.616C11.6789 77.5901 11.7227 77.5437 11.7454 77.4864V77.4504L12.7198 74.88L11.875 74.5824Z" fill="#344127"/>
<path d="M27.6477 84.5304V86.7984C27.6428 86.8384 27.6279 86.8765 27.6045 86.9092C27.581 86.9419 27.5496 86.9682 27.5133 86.9856C27.4125 87.0367 27.3011 87.0633 27.1881 87.0633C27.0751 87.0633 26.9637 87.0367 26.8629 86.9856C26.8266 86.9682 26.7953 86.9419 26.7718 86.9092C26.7483 86.8765 26.7334 86.8384 26.7285 86.7984V84.5304C26.8699 84.4548 27.0278 84.4153 27.1881 84.4153C27.3485 84.4153 27.5063 84.4548 27.6477 84.5304Z" fill="#344127"/>
<path d="M42.1913 58.3776C42.1913 57.7752 41.6633 57.1368 40.5497 56.4144C38.4929 55.08 33.8993 52.4016 31.0217 50.8056C31.0207 50.7998 31.0178 50.7946 31.0134 50.7907C31.0091 50.7868 31.0036 50.7844 30.9977 50.784C28.7825 49.44 26.7161 43.0392 25.1849 38.1768C24.6617 36.5184 24.0233 35.58 23.2649 35.1384C23.0849 35.0352 22.4201 34.6704 22.2713 34.5816C20.7689 33.6792 18.7937 34.7616 16.3361 36.108C14.0705 37.3464 12.3017 38.9328 11.9465 43.1448C11.7281 45.708 11.9345 50.6064 12.4553 54.3192C13.2089 60.5232 14.1353 60.5328 15.4769 61.5696C17.7905 63.36 22.9985 65.8656 25.1993 66.72C29.1785 68.2848 32.4329 65.8704 34.8569 64.6728C37.0793 63.5504 39.2248 62.2821 41.2793 60.876C41.8865 60.4368 42.2009 59.9904 42.1937 59.52C42.1865 59.3352 42.1913 58.572 42.1913 58.3776Z" fill="#344127"/>
<path opacity="0.25" d="M42.1913 58.3776C42.1913 57.7752 41.6633 57.1368 40.5497 56.4144C38.4929 55.08 33.8993 52.4016 31.0217 50.8056C31.0207 50.7998 31.0178 50.7946 31.0134 50.7907C31.0091 50.7868 31.0036 50.7844 30.9977 50.784C28.7825 49.44 26.7161 43.0392 25.1849 38.1768C24.6617 36.5184 24.0233 35.58 23.2649 35.1384C23.0849 35.0352 22.4201 34.6704 22.2713 34.5816C20.7689 33.6792 18.7937 34.7616 16.3361 36.108C14.0705 37.3464 12.3017 38.9328 11.9465 43.1448C11.7281 45.708 11.9345 50.6064 12.4553 54.3192C13.2089 60.5232 14.1353 60.5328 15.4769 61.5696C17.7905 63.36 22.9985 65.8656 25.1993 66.72C29.1785 68.2848 32.4329 65.8704 34.8569 64.6728C37.0793 63.5504 39.2248 62.2821 41.2793 60.876C41.8865 60.4368 42.2009 59.9904 42.1937 59.52C42.1865 59.3352 42.1913 58.572 42.1913 58.3776Z" fill="black"/>
<path d="M23.1765 35.088C21.6861 34.3056 19.7493 35.3688 17.3541 36.6816C15.8205 37.524 14.5125 38.52 13.7181 40.3848L12.7197 39.7992C13.5141 37.9416 14.8197 36.9456 16.3485 36.108C18.8085 34.7616 20.7813 33.6792 22.2861 34.5816L23.1765 35.088Z" fill="#344127"/>
<path d="M40.5593 56.4144C39.2249 55.548 39.1961 55.3272 30.9593 50.7648C30.973 50.7681 30.986 50.7738 30.9977 50.7816C28.7849 49.4328 26.7209 43.0368 25.1897 38.1768C23.6321 33.2376 21.0377 34.668 17.3585 36.684C15.0881 37.92 13.3193 39.5088 12.9593 43.7208C12.5993 47.9328 13.3793 58.3608 14.8169 59.6328C16.3841 61.3656 22.6745 64.5864 25.1873 65.5752C29.1665 67.14 32.4209 64.7256 34.8449 63.528C37.0715 62.4037 39.221 61.1329 41.2793 59.724C42.6545 58.7208 42.5273 57.696 40.5593 56.4144Z" fill="#344127"/>
<g opacity="0.1">
<path opacity="0.1" d="M17.3539 36.684C21.0331 34.668 23.6275 33.2376 25.1851 38.1768C26.7163 43.0392 28.7851 49.44 30.9979 50.784C30.9979 50.784 27.1987 50.784 21.6955 53.7528C15.9739 56.8416 15.1003 59.8632 14.8387 59.6472C13.3987 58.4472 12.6067 47.9304 12.9643 43.7208C13.3219 39.5112 15.0883 37.92 17.3539 36.684Z" fill="black"/>
</g>
<path d="M43.0896 78.744L17.8848 64.1928L59.9832 39.9L85.1856 54.4512L43.0896 78.744Z" fill="#455A64"/>
<path d="M17.8848 64.1928V93.2952L19.212 94.0608V74.148L41.7624 87.168V107.081L43.0896 107.846V78.744L17.8848 64.1928Z" fill="#263238"/>
<path d="M19.2119 94.0607L20.5391 93.2951V74.9135L19.2119 74.1479V94.0607Z" fill="black"/>
<path d="M43.0898 107.846L44.417 107.081V87.1681L83.8611 64.4089V84.3217L85.1859 83.5561V54.4513L43.0898 78.7441V107.846Z" fill="#37474F"/>
<path d="M83.8604 84.3215L82.5332 83.5559V65.1743L83.8604 64.4087V84.3215Z" fill="#263238"/>
<g opacity="0.2">
<path opacity="0.2" d="M40.7996 73.0031C39.5108 73.7447 39.5108 74.9495 40.7996 75.6935C42.0884 76.4375 44.1596 76.4351 45.458 75.6935C46.7564 74.9519 46.7444 73.7447 45.458 73.0031C44.1716 72.2615 42.0908 72.2591 40.7996 73.0031Z" fill="black"/>
</g>
<g opacity="0.2">
<path opacity="0.2" d="M22.1906 64.1759L31.4402 69.5207C31.5208 69.5622 31.6101 69.5838 31.7006 69.5838C31.7912 69.5838 31.8805 69.5622 31.961 69.5207L38.7746 65.5871C38.806 65.5765 38.8332 65.5563 38.8525 65.5294C38.8718 65.5025 38.8821 65.4702 38.8821 65.4371C38.8821 65.404 38.8718 65.3718 38.8525 65.3449C38.8332 65.3179 38.806 65.2978 38.7746 65.2871L29.5202 59.9399C29.4393 59.8997 29.3502 59.8788 29.2598 59.8788C29.1695 59.8788 29.0804 59.8997 28.9994 59.9399L22.1858 63.8759C22.0466 63.9575 22.0466 64.0919 22.1906 64.1759Z" fill="black"/>
</g>
<g opacity="0.2">
<path opacity="0.2" d="M22.1901 65.1311L31.4397 70.4759C31.5202 70.5174 31.6095 70.539 31.7001 70.539C31.7906 70.539 31.8799 70.5174 31.9605 70.4759L38.7741 66.5423C38.9181 66.4583 38.9181 66.3239 38.7741 66.2423L29.5197 60.8951C29.4387 60.855 29.3496 60.8341 29.2593 60.8341C29.1689 60.8341 29.0798 60.855 28.9989 60.8951L22.1901 64.8287C22.159 64.84 22.1321 64.8605 22.1131 64.8876C22.0942 64.9146 22.084 64.9469 22.084 64.9799C22.084 65.013 22.0942 65.0452 22.1131 65.0723C22.1321 65.0993 22.159 65.1199 22.1901 65.1311Z" fill="black"/>
</g>
<path d="M22.1901 64.8193L31.4397 70.1641C31.5202 70.2056 31.6095 70.2272 31.7001 70.2272C31.7906 70.2272 31.8799 70.2056 31.9605 70.1641L38.7837 66.2401C38.9277 66.1561 38.9277 66.0217 38.7837 65.9401L29.5197 60.5833C29.4387 60.5432 29.3496 60.5222 29.2593 60.5222C29.1689 60.5222 29.0798 60.5432 28.9989 60.5833L22.1901 64.5169C22.159 64.5282 22.1321 64.5487 22.1131 64.5758C22.0942 64.6028 22.084 64.6351 22.084 64.6681C22.084 64.7012 22.0942 64.7334 22.1131 64.7605C22.1321 64.7875 22.159 64.8081 22.1901 64.8193Z" fill="#EBEBEB"/>
<path d="M29.0036 60.5832L22.5332 64.32L31.4396 69.468C31.5205 69.5082 31.6097 69.5291 31.7 69.5291C31.7904 69.5291 31.8795 69.5082 31.9604 69.468L38.4404 65.7312L29.5196 60.5832C29.4393 60.5438 29.3511 60.5233 29.2616 60.5233C29.1722 60.5233 29.0839 60.5438 29.0036 60.5832Z" fill="#E0E0E0"/>
<path d="M22.1901 63.8784L31.4397 69.2232C31.5202 69.2646 31.6095 69.2863 31.7001 69.2863C31.7906 69.2863 31.8799 69.2646 31.9605 69.2232L38.7837 65.28C38.8147 65.2687 38.8416 65.2482 38.8606 65.2211C38.8795 65.1941 38.8897 65.1618 38.8897 65.1288C38.8897 65.0957 38.8795 65.0635 38.8606 65.0364C38.8416 65.0094 38.8147 64.9888 38.7837 64.9776L29.5197 59.6424C29.4391 59.6009 29.3498 59.5793 29.2593 59.5793C29.1687 59.5793 29.0794 59.6009 28.9989 59.6424L22.1901 63.576C22.159 63.5872 22.1321 63.6078 22.1131 63.6348C22.0942 63.6619 22.084 63.6941 22.084 63.7272C22.084 63.7602 22.0942 63.7925 22.1131 63.8195C22.1321 63.8466 22.159 63.8671 22.1901 63.8784Z" fill="#FAFAFA"/>
<g opacity="0.2">
<path opacity="0.2" d="M32.6397 59.424L37.6437 62.3208C37.7389 62.3693 37.8442 62.3946 37.9509 62.3946C38.0577 62.3946 38.163 62.3693 38.2581 62.3208L54.4077 52.992C54.445 52.9796 54.4775 52.9558 54.5004 52.9239C54.5234 52.892 54.5358 52.8537 54.5358 52.8144C54.5358 52.7751 54.5234 52.7368 54.5004 52.705C54.4775 52.6731 54.445 52.6492 54.4077 52.6368L49.4061 49.74C49.3106 49.6915 49.2049 49.6663 49.0977 49.6663C48.9906 49.6663 48.8849 49.6915 48.7893 49.74L32.6397 59.0688C32.6025 59.0812 32.57 59.1051 32.5471 59.137C32.5241 59.1688 32.5117 59.2071 32.5117 59.2464C32.5117 59.2857 32.5241 59.324 32.5471 59.3559C32.57 59.3878 32.6025 59.4116 32.6397 59.424Z" fill="black"/>
</g>
<path d="M32.8125 58.7447V58.6319C32.8189 58.5354 32.8479 58.4416 32.897 58.3583C32.9462 58.2749 33.0143 58.2042 33.0957 58.1519L47.9229 49.5839C48.0106 49.5391 48.1076 49.5157 48.2061 49.5157C48.3046 49.5157 48.4016 49.5391 48.4893 49.5839L53.0829 52.2431C53.1638 52.296 53.2315 52.3668 53.2806 52.45C53.3297 52.5333 53.359 52.6267 53.3661 52.7231V52.8359C53.3593 52.9324 53.3302 53.026 53.2811 53.1093C53.2319 53.1926 53.1641 53.2633 53.0829 53.3159L38.2557 61.8839C38.168 61.9288 38.071 61.9522 37.9725 61.9522C37.874 61.9522 37.777 61.9288 37.6893 61.8839L33.0957 59.2343C33.0135 59.1805 32.9451 59.1082 32.8959 59.0232C32.8468 58.9382 32.8182 58.8428 32.8125 58.7447Z" fill="#E0E0E0"/>
<path d="M33.0956 58.4688L37.6796 61.128C37.7676 61.1717 37.8646 61.1945 37.9628 61.1945C38.0611 61.1945 38.158 61.1717 38.246 61.128L53.0828 52.56C53.1167 52.5482 53.1461 52.5261 53.1669 52.4969C53.1877 52.4676 53.1988 52.4326 53.1988 52.3968C53.1988 52.3609 53.1877 52.3259 53.1669 52.2966C53.1461 52.2674 53.1167 52.2454 53.0828 52.2336L48.4796 49.5744C48.392 49.5295 48.2949 49.5061 48.1964 49.5061C48.098 49.5061 48.0009 49.5295 47.9132 49.5744L33.086 58.1424C33.0525 58.1551 33.0237 58.178 33.0037 58.2079C32.9838 58.2377 32.9736 58.2731 32.9747 58.309C32.9757 58.3449 32.988 58.3796 33.0096 58.4082C33.0313 58.4368 33.0614 58.458 33.0956 58.4688Z" fill="#FAFAFA"/>
<path d="M45.2592 74.5391C46.3944 73.3799 47.0616 70.4831 45.9528 69.5639H40.32C39.2112 70.4831 39.8784 73.3775 41.0136 74.5367L41.0448 74.5703L41.0832 74.6087L41.1864 74.6999L41.2128 74.7215L41.2992 74.7863C41.3472 74.8199 41.3976 74.8511 41.4456 74.8799C41.9703 75.1462 42.5504 75.285 43.1388 75.285C43.7272 75.285 44.3073 75.1462 44.832 74.8799C44.8827 74.851 44.9316 74.819 44.9784 74.7839L45.06 74.7239L45.0936 74.6975C45.1272 74.6687 45.1608 74.6399 45.192 74.6087L45.2376 74.5655L45.2592 74.5391Z" fill="#EBEBEB"/>
<path d="M40.7996 69.1944C39.5108 69.936 39.5108 71.1408 40.7996 71.8848C42.0884 72.6288 44.1596 72.6264 45.458 71.8848C46.7564 71.1432 46.7444 69.936 45.458 69.1944C44.1716 68.4528 42.0908 68.4504 40.7996 69.1944Z" fill="#FAFAFA"/>
<path d="M41.7167 69.72C40.9343 70.1736 40.9343 70.9056 41.7167 71.3568C42.1556 71.5805 42.6412 71.6972 43.1339 71.6972C43.6265 71.6972 44.1122 71.5805 44.5511 71.3568C45.3335 70.9056 45.3335 70.1736 44.5511 69.72C44.1118 69.4975 43.6263 69.3816 43.1339 69.3816C42.6415 69.3816 42.156 69.4975 41.7167 69.72Z" fill="#EBEBEB"/>
<path d="M44.5517 70.4975C44.1124 70.2751 43.6269 70.1591 43.1345 70.1591C42.6421 70.1591 42.1566 70.2751 41.7173 70.4975C41.5241 70.5987 41.3591 70.7463 41.2373 70.9271C41.3591 71.108 41.5241 71.2556 41.7173 71.3568C42.1562 71.5805 42.6419 71.6972 43.1345 71.6972C43.6272 71.6972 44.1128 71.5805 44.5517 71.3568C44.7456 71.2567 44.9108 71.1088 45.0317 70.9271C44.9108 70.7455 44.7456 70.5976 44.5517 70.4975Z" fill="#E0E0E0"/>
<path d="M41.8898 70.9273C41.489 70.5206 41.1443 70.0622 40.865 69.5641C40.385 68.7265 40.3034 67.6057 40.5482 67.4665C40.793 67.3273 41.789 68.4481 41.789 68.4481C41.6971 67.974 41.6616 67.4906 41.6834 67.0081C41.7266 66.2617 41.9066 65.5849 42.1202 65.4481C42.3338 65.3113 42.8138 66.2521 43.0178 66.9337C43.2218 67.6153 43.3442 68.1769 43.3442 68.1769C43.4274 67.6453 43.5502 67.1207 43.7114 66.6073C43.9514 65.8993 44.1914 65.7385 44.3618 65.8105C44.5322 65.8825 44.6522 66.2089 44.7026 67.1521C44.7212 67.6022 44.7067 68.053 44.6594 68.5009C44.6594 68.5009 45.0122 68.1145 45.401 67.7401C45.8306 67.3297 46.013 67.2601 46.1354 67.3513C46.2578 67.4425 46.2914 68.0713 45.629 69.2713C45.2991 69.8824 44.8765 70.4386 44.3762 70.9201C44.3762 70.9201 43.457 71.5201 41.8898 70.9273Z" fill="#344127"/>
<path d="M66.4795 57.2161L67.6795 42.7585C67.6917 42.5239 67.6431 42.2902 67.5384 42.0799C67.4337 41.8697 67.2765 41.69 67.0819 41.5585C66.8681 41.4546 66.6328 41.4027 66.3951 41.4069C66.1574 41.411 65.924 41.4712 65.7139 41.5825L49.8739 50.7241C49.6652 50.8605 49.4882 51.0402 49.3549 51.2509C49.2216 51.4617 49.135 51.6986 49.1011 51.9457L47.9011 66.4009C47.8894 66.6351 47.9379 66.8684 48.0421 67.0785C48.1463 67.2886 48.3027 67.4685 48.4963 67.6009C48.7108 67.7043 48.9466 67.7559 49.1847 67.7513C49.4228 67.7467 49.6564 67.6861 49.8667 67.5745L65.7067 58.4353C65.915 58.2988 66.0917 58.1195 66.2249 57.9092C66.3582 57.6989 66.445 57.4626 66.4795 57.2161Z" fill="#344127"/>
<path opacity="0.5" d="M66.4795 57.2161L67.6795 42.7585C67.6917 42.5239 67.6431 42.2902 67.5384 42.0799C67.4337 41.8697 67.2765 41.69 67.0819 41.5585C66.8681 41.4546 66.6328 41.4027 66.3951 41.4069C66.1574 41.411 65.924 41.4712 65.7139 41.5825L49.8739 50.7241C49.6652 50.8605 49.4882 51.0402 49.3549 51.2509C49.2216 51.4617 49.135 51.6986 49.1011 51.9457L47.9011 66.4009C47.8894 66.6351 47.9379 66.8684 48.0421 67.0785C48.1463 67.2886 48.3027 67.4685 48.4963 67.6009C48.7108 67.7043 48.9466 67.7559 49.1847 67.7513C49.4228 67.7467 49.6564 67.6861 49.8667 67.5745L65.7067 58.4353C65.915 58.2988 66.0917 58.1195 66.2249 57.9092C66.3582 57.6989 66.445 57.4626 66.4795 57.2161Z" fill="white"/>
<path d="M66.4796 57.2161L67.6796 42.7585C67.6918 42.5239 67.6432 42.2902 67.5385 42.0799C67.4338 41.8697 67.2765 41.69 67.082 41.5585C66.8681 41.4546 66.6328 41.4027 66.3951 41.4069C66.1574 41.411 65.924 41.4712 65.714 41.5825L49.874 50.7241C49.6647 50.8545 49.4888 51.032 49.3604 51.2425L51.8204 52.6633V66.4489L65.7068 58.4329C65.9147 58.2967 66.0912 58.1177 66.2245 57.9079C66.3578 57.698 66.4447 57.4622 66.4796 57.2161Z" fill="#344127"/>
<path opacity="0.8" d="M66.4796 57.2161L67.6796 42.7585C67.6918 42.5239 67.6432 42.2902 67.5385 42.0799C67.4338 41.8697 67.2765 41.69 67.082 41.5585C66.8681 41.4546 66.6328 41.4027 66.3951 41.4069C66.1574 41.411 65.924 41.4712 65.714 41.5825L49.874 50.7241C49.6647 50.8545 49.4888 51.032 49.3604 51.2425L51.8204 52.6633V66.4489L65.7068 58.4329C65.9147 58.2967 66.0912 58.1177 66.2245 57.9079C66.3578 57.698 66.4447 57.4622 66.4796 57.2161Z" fill="white"/>
<path d="M49.2286 67.1711L50.4286 52.7158C50.4623 52.4687 50.5488 52.2318 50.6822 52.021C50.8155 51.8102 50.9926 51.6306 51.2014 51.4942L67.0414 42.3526C67.4326 42.127 67.7182 42.3094 67.6822 42.7582L66.4822 57.2158C66.448 57.4628 66.3614 57.6996 66.2281 57.9103C66.0948 58.121 65.9179 58.3008 65.7094 58.4375L49.8694 67.5767C49.4782 67.8023 49.1998 67.6199 49.2286 67.1711Z" fill="#344127"/>
<path opacity="0.65" d="M49.2286 67.1711L50.4286 52.7158C50.4623 52.4687 50.5488 52.2318 50.6822 52.021C50.8155 51.8102 50.9926 51.6306 51.2014 51.4942L67.0414 42.3526C67.4326 42.127 67.7182 42.3094 67.6822 42.7582L66.4822 57.2158C66.448 57.4628 66.3614 57.6996 66.2281 57.9103C66.0948 58.121 65.9179 58.3008 65.7094 58.4375L49.8694 67.5767C49.4782 67.8023 49.1998 67.6199 49.2286 67.1711Z" fill="white"/>
<path d="M57.3983 55.572C57.4607 54.8328 57.9791 53.9616 58.5575 53.6256C59.1359 53.2896 59.5559 53.6256 59.4935 54.3576C59.4311 55.0896 58.9151 55.9704 58.3367 56.3064C57.7583 56.6424 57.3383 56.3136 57.3983 55.572Z" fill="#344127"/>
<path d="M57.7704 59.9424L61.6631 57.6816L61.0007 57.3L57.1104 59.5608L57.7704 59.9424Z" fill="#344127"/>
<g opacity="0.85">
<path opacity="0.85" d="M57.7704 59.9424L61.6631 57.6816L61.0007 57.3L57.1104 59.5608L57.7704 59.9424Z" fill="white"/>
</g>
<path d="M63.4683 64.3199L58.7307 67.0559C58.6373 67.1062 58.532 67.1303 58.4259 67.1255C58.3366 67.1234 58.2488 67.1013 58.1691 67.0607L56.0835 65.8607H56.0715C55.9929 65.8067 55.9278 65.7353 55.8811 65.6521C55.8345 65.5688 55.8077 65.476 55.8027 65.3807V65.2703C55.8027 65.0903 55.9251 65.0159 56.0835 65.1071L57.3435 65.8271L57.6243 65.9903L57.5619 65.6711L57.1203 59.5607L57.7803 59.9447L61.6731 57.6839L63.6915 63.8399C63.7037 63.9329 63.6891 64.0273 63.6496 64.1123C63.6101 64.1973 63.5472 64.2693 63.4683 64.3199Z" fill="#344127"/>
<g opacity="0.5">
<path opacity="0.5" d="M63.4683 64.3199L58.7307 67.0559C58.6373 67.1062 58.532 67.1303 58.4259 67.1255C58.3366 67.1234 58.2488 67.1013 58.1691 67.0607L56.0835 65.8607H56.0715C55.9929 65.8067 55.9278 65.7353 55.8811 65.6521C55.8345 65.5688 55.8077 65.476 55.8027 65.3807V65.2703C55.8027 65.0903 55.9251 65.0159 56.0835 65.1071L57.3435 65.8271L57.6243 65.9903L57.5619 65.6711L57.1203 59.5607L57.7803 59.9447L61.6731 57.6839L63.6915 63.8399C63.7037 63.9329 63.6891 64.0273 63.6496 64.1123C63.6101 64.1973 63.5472 64.2693 63.4683 64.3199Z" fill="white"/>
</g>
<path d="M55.8818 65.0616L57.497 64.128L57.8258 66.3048L55.8818 65.0616Z" fill="#344127"/>
<g opacity="0.25">
<path opacity="0.25" d="M55.8818 65.0616L57.497 64.128L57.8258 66.3048L55.8818 65.0616Z" fill="black"/>
</g>
<path d="M57.7701 59.9449L57.1101 59.5609L57.5541 65.6544C57.5901 65.8296 57.4893 65.8944 57.3357 65.8104L56.0757 65.0904C55.9173 64.9992 55.7949 65.0737 55.7949 65.2537V65.364C55.7999 65.4593 55.8267 65.5522 55.8733 65.6354C55.9199 65.7186 55.9851 65.79 56.0637 65.844H56.0757L58.1613 67.044C58.241 67.0846 58.3287 67.1067 58.4181 67.1088L57.7701 59.9449Z" fill="#344127"/>
<g opacity="0.25">
<path opacity="0.25" d="M57.7701 59.9449L57.1101 59.5609L57.5541 65.6544C57.5901 65.8296 57.4893 65.8944 57.3357 65.8104L56.0757 65.0904C55.9173 64.9992 55.7949 65.0737 55.7949 65.2537V65.364C55.7999 65.4593 55.8267 65.5522 55.8733 65.6354C55.9199 65.7186 55.9851 65.79 56.0637 65.844H56.0757L58.1613 67.044C58.241 67.0846 58.3287 67.1067 58.4181 67.1088L57.7701 59.9449Z" fill="white"/>
</g>
<path opacity="0.2" d="M40.0439 63.9408L40.7735 64.3608L46.5287 60.9912L47.1647 60.2424L45.8399 60.5928L40.0439 63.9408Z" fill="black"/>
<path d="M45.8926 60.0816L47.119 59.8416C47.1267 59.8403 47.1347 59.8414 47.1418 59.8447C47.1489 59.8481 47.1548 59.8535 47.1587 59.8603C47.1626 59.8671 47.1644 59.8749 47.1637 59.8828C47.163 59.8906 47.16 59.898 47.155 59.904L46.3198 60.8448L45.8926 60.0816Z" fill="#FFA8A7"/>
<path d="M47.1549 59.904C47.1599 59.898 47.163 59.8906 47.1636 59.8828C47.1643 59.8749 47.1626 59.8671 47.1586 59.8603C47.1547 59.8535 47.1488 59.8481 47.1417 59.8447C47.1346 59.8414 47.1266 59.8403 47.1189 59.8416L46.8789 59.8872C46.912 59.9076 46.9387 59.9369 46.9561 59.9716C46.9735 60.0064 46.9809 60.0453 46.9773 60.084V60.1056L47.1549 59.904Z" fill="#263238"/>
<path d="M41.7597 63.4657L41.8605 63.4081L41.9829 63.3409L46.3197 60.8449C46.3603 60.7103 46.3483 60.5653 46.2861 60.4393C46.2538 60.3522 46.201 60.2741 46.132 60.2119C46.0631 60.1496 45.9801 60.1049 45.8901 60.0817L41.5437 62.5753L41.3037 62.7073C41.4693 62.6401 41.9037 63.3865 41.7597 63.4657Z" fill="#344127"/>
<path d="M42.134 63.2497L42.3572 63.1201C42.422 63.0841 42.386 62.9233 42.3068 62.7553C42.206 62.5321 42.0044 62.3161 41.9156 62.3617L41.7524 62.4577L41.6924 62.4913C41.7812 62.4457 41.9828 62.6617 42.0836 62.8849C42.158 63.0457 42.1964 63.2017 42.1388 63.2449L42.134 63.2497Z" fill="#EBEBEB"/>
<path d="M42.1892 63.216C42.3428 63.1344 41.9036 62.376 41.7476 62.4576L41.5244 62.5872C41.678 62.5056 42.1172 63.264 41.9636 63.3456L42.1892 63.216Z" fill="#344127"/>
<path d="M41.7602 63.4657L41.9834 63.3409C42.1346 63.2617 41.7146 62.5273 41.5562 62.5753L41.333 62.7049C41.4698 62.6401 41.9042 63.3865 41.7602 63.4657Z" fill="#EBEBEB"/>
<path opacity="0.15" d="M47.1596 59.8607L47.1188 59.8415L46.2284 60.3215L41.6276 62.9615C41.6276 62.9471 41.6132 62.9471 41.6084 62.9615C41.738 63.1655 41.8364 63.4223 41.75 63.4655L41.8508 63.4079L41.9732 63.3407L46.3196 60.8447L47.1524 59.9039C47.1576 59.8982 47.161 59.891 47.1623 59.8834C47.1636 59.8757 47.1626 59.8679 47.1596 59.8607Z" fill="black"/>
<path d="M40.8117 64.0058L41.7501 63.4658C41.8173 63.4322 41.7813 63.2714 41.7045 63.1058C41.6037 62.8802 41.4021 62.6642 41.3133 62.7074L40.3701 63.2474C40.1829 63.3554 40.3557 63.7634 40.5645 63.9434C40.5944 63.9778 40.6341 64.0022 40.6783 64.0134C40.7225 64.0245 40.769 64.0219 40.8117 64.0058Z" fill="#F28F8F"/>
<path opacity="0.1" d="M40.8676 63.7128C40.844 63.6111 40.797 63.5162 40.7303 63.4358C40.6637 63.3554 40.5792 63.2917 40.4836 63.2496C40.4607 63.2407 40.4358 63.2377 40.4115 63.2411C40.3871 63.2445 40.364 63.254 40.3444 63.2688C40.2028 63.3984 40.366 63.7728 40.5652 63.9432C40.5945 63.9762 40.633 63.9997 40.6757 64.0108C40.7184 64.0219 40.7635 64.0201 40.8052 64.0056C40.8772 63.9648 40.9036 63.8568 40.8676 63.7128Z" fill="black"/>
<path d="M91.0439 28.0057C92.9639 28.0585 93.5087 28.8265 94.6655 30.4801C95.8223 32.1337 99.7583 38.4001 99.7583 38.4001L105.334 40.5409L104.599 43.7929C104.599 43.7929 97.1471 42.5305 96.6599 42.2449C96.1727 41.9593 92.5439 35.9809 92.5439 35.9809L91.0439 28.0057Z" fill="#E6E6E6"/>
<path d="M89.5742 28.0586C91.3886 27.605 92.1902 28.6178 92.795 29.7386C95.543 34.7786 96.659 65.0186 96.659 65.0186C96.659 65.0186 90.5294 67.4642 85.9814 64.5938L89.5742 28.0586Z" fill="#F0F0F0"/>
<path d="M95.4188 80.0354L94.2716 84.4009C94.2716 84.4009 92.9492 85.1809 91.8092 84.4129C90.9044 83.8033 90.9596 83.081 90.9596 83.081L91.0124 82.4233L91.142 77.3474L95.4188 80.0354Z" fill="#B16668"/>
<path d="M89.8987 85.44C89.5843 86.1384 89.4043 88.1784 89.4043 88.1784C89.4043 88.1784 89.5963 88.9296 90.6403 89.5944L91.6555 86.8968L89.8987 85.44Z" fill="#263238"/>
<path d="M90.6406 89.6041L93.2782 89.2417L94.2814 87.1417L91.2262 88.0489L90.6406 89.6041Z" fill="black"/>
<path d="M94.4711 83.6449L94.6127 83.1121C95.0135 83.1337 94.9775 83.9257 95.0063 84.1561C95.0951 84.8161 95.1623 85.4761 95.2631 86.1337C95.3675 86.8618 95.537 87.5791 95.7695 88.2769C96.0095 88.9417 96.1487 89.6497 96.5543 90.2377C96.9599 90.8257 97.6727 91.1737 98.2487 91.5697C98.4012 91.657 98.5272 91.7839 98.6135 91.9369C98.7455 92.2297 98.5607 92.5681 98.3327 92.7913C97.9281 93.1689 97.4184 93.415 96.8711 93.4969C96.326 93.5773 95.7721 93.5773 95.2271 93.4969C94.259 93.3929 93.332 93.0498 92.5295 92.4985C91.7567 91.9465 91.5887 90.8545 91.4639 89.9713C91.3631 89.2513 91.4255 88.4137 91.1279 87.7393C90.8303 87.0649 89.9807 86.1793 89.8991 85.4497C89.8642 84.8314 89.9951 84.2149 90.2783 83.6641C90.5879 83.0713 90.8111 82.3153 91.0127 82.4233L90.9767 82.8553C90.9767 82.8241 91.1759 83.6857 92.4167 83.9929C92.9999 84.1393 94.1015 84.1345 94.4711 83.6449Z" fill="#263238"/>
<path d="M92.592 88.3729C92.6256 89.1793 92.592 89.5129 92.592 89.8777C92.6256 90.5449 92.8032 91.0081 92.9544 91.6561C93.0194 91.9222 93.1111 92.1811 93.228 92.4289C93.3528 92.7169 93.5856 93.1057 93.4488 93.3889C93.3811 93.5188 93.2881 93.6339 93.1752 93.7273C92.676 94.1547 92.0315 94.3738 91.3752 94.3393C91.0295 94.3356 90.6911 94.2386 90.396 94.0585C89.8176 93.6793 89.5896 92.9881 89.28 92.4049C88.9416 91.7737 89.1384 91.4449 89.0832 90.7513C89.0157 89.8341 88.8963 88.9214 88.7256 88.0177C89.976 86.5873 91.0272 87.9745 92.592 88.3729Z" fill="#B16668"/>
<path d="M94.5069 48.48C96.3813 55.0128 99.5469 66.1152 98.6589 69.5712C97.9869 72.1608 95.0589 81.6168 95.0589 81.6168C93.9285 81.7752 91.6173 82.0272 90.7173 80.0472C90.4893 76.8336 89.6973 55.0128 89.6973 55.0128L94.5069 48.48Z" fill="#344127"/>
<path opacity="0.4" d="M94.5069 48.48C96.3813 55.0128 99.5469 66.1152 98.6589 69.5712C97.9869 72.1608 95.0589 81.6168 95.0589 81.6168C93.9285 81.7752 91.6173 82.0272 90.7173 80.0472C90.4893 76.8336 89.6973 55.0128 89.6973 55.0128L94.5069 48.48Z" fill="white"/>
<path opacity="0.25" d="M89.707 55.0009C90.8968 53.8766 92.0029 52.667 93.0166 51.3817C93.0166 51.3817 92.7766 52.9297 90.643 55.0633C90.643 55.0633 94.219 68.8369 94.1974 71.0353C94.1758 73.2337 92.9974 81.1154 92.9974 81.1154L89.707 55.0009Z" fill="black"/>
<path d="M94.5072 48.4802C92.9784 51.6506 92.3784 52.9178 89.7072 55.013C89.7072 55.013 92.9736 68.5874 93.1176 71.2226C93.3576 75.6026 92.7936 85.4066 92.592 88.385C92.0856 89.0474 89.6184 89.1602 88.8408 88.5962C88.4856 87.2186 87.2928 82.3706 86.7336 78.0218C86.3208 74.8082 86.8488 71.933 86.916 71.0906C85.1856 66.677 81.3 60.2354 79.8792 55.6202C79.6461 54.8213 79.4989 53.9999 79.44 53.1698C79.1232 50.2442 80.3208 48.0098 81.024 46.4498L94.5072 48.4802Z" fill="#344127"/>
<g opacity="0.5">
<path opacity="0.5" d="M94.5072 48.4802C92.9784 51.6506 92.3784 52.9178 89.7072 55.013C89.7072 55.013 92.9736 68.5874 93.1176 71.2226C93.3576 75.6026 92.7936 85.4066 92.592 88.385C92.0856 89.0474 89.6184 89.1602 88.8408 88.5962C88.4856 87.2186 87.2928 82.3706 86.7336 78.0218C86.3208 74.8082 86.8488 71.933 86.916 71.0906C85.1856 66.677 81.3 60.2354 79.8792 55.6202C79.6461 54.8213 79.4989 53.9999 79.44 53.1698C79.1232 50.2442 80.3208 48.0098 81.024 46.4498L94.5072 48.4802Z" fill="white"/>
</g>
<path d="M88.4609 92.9641C88.2713 93.7033 88.4441 95.7409 88.4441 95.7409C88.4441 95.7409 88.7585 96.4465 89.8985 96.9241L90.4385 94.0969L88.4609 92.9641Z" fill="#263238"/>
<path d="M89.8984 96.9241L92.4328 96.1153L93.0592 93.8809L90.2104 95.2921L89.8984 96.9241Z" fill="black"/>
<path d="M92.5816 90.408L92.6008 89.8776C92.9416 90.048 93.6736 92.8152 94.6768 94.7208C95.5936 96.4584 97.432 97.4376 98.0248 98.196C98.8168 99.2112 97.2472 100.495 94.7488 99.9384C93.5104 99.66 91.6288 98.8488 91.1344 98.0064C90.64 97.164 90.472 95.6232 90.0616 95.004C89.6512 94.3848 88.6648 93.6672 88.4608 92.964C88.3016 92.3273 88.3091 91.6603 88.4824 91.0272C88.684 90.3912 88.6744 89.7384 88.9936 89.6856L89.0416 90.1848C89.2072 90.528 89.8552 90.9216 91.1176 91.0032C91.72 91.0392 92.3032 90.96 92.5816 90.408Z" fill="#37474F"/>
<path d="M88.1612 22.5937L86.9012 26.8537C83.3972 26.8537 81.2324 23.4409 81.2324 19.9369C81.2324 16.4185 83.474 13.4785 86.9924 13.4785H88.1348C91.6532 13.4785 94.5068 15.8137 94.5068 19.3345C94.5068 21.6265 91.6652 22.5937 88.1612 22.5937Z" fill="#263238"/>
<path d="M95.1642 16.0801C95.4331 15.6409 95.5628 15.1305 95.5362 14.6161C95.5195 14.3588 95.4444 14.1086 95.3168 13.8845C95.1891 13.6604 95.0122 13.4682 94.7994 13.3225C94.1442 12.9049 93.237 13.1017 92.6394 13.5841C92.5908 13.1258 92.3657 12.7044 92.0118 12.4092C91.6579 12.114 91.203 11.9681 90.7434 12.0025C90.1602 12.0481 89.6418 12.3721 89.1378 12.6649C88.2798 13.0999 87.3536 13.3848 86.3994 13.5073L87.4722 13.9201C87.3264 14.1446 87.2337 14.3995 87.2012 14.6653C87.1688 14.931 87.1975 15.2007 87.285 15.4537C87.331 15.5575 87.3873 15.6564 87.453 15.7489C88.1652 16.8142 89.1488 17.6701 90.3023 18.2283C91.4558 18.7864 92.7373 19.0266 94.0146 18.9241C94.3728 18.9164 94.7231 18.8173 95.0322 18.6361C95.2125 18.5079 95.3651 18.3446 95.481 18.1561C95.705 17.8285 95.8155 17.4365 95.7954 17.0401C95.7813 16.8394 95.7159 16.6457 95.6053 16.4776C95.4948 16.3095 95.3429 16.1726 95.1642 16.0801Z" fill="#263238"/>
<path d="M85.4248 28.5602L83.128 28.8002C81.604 29.1722 80.9152 29.8442 80.7592 31.2002C80.6872 31.829 80.3056 33.5042 80.8384 35.6042C81.3184 37.505 82.6096 42.1586 82.6096 42.1586C82.6096 42.1586 80.9416 46.3418 80.1592 48.4802C85.5784 52.0154 92.2672 50.6186 94.5136 48.4802C94.324 46.4594 93.6088 44.5754 93.448 42.773C93.448 42.773 93.5632 39.9554 93.7864 38.7338C95.5024 36.8642 95.2816 35.0738 94.5064 33.6314C93.0856 30.965 90.9424 28.625 90.2512 28.6274L85.4248 28.5602Z" fill="#455A64"/>
<path d="M89.5439 27.0458C90.2303 27.2138 90.7655 27.4922 91.0439 28.0058C91.3223 28.5194 93.4943 31.9394 93.4943 31.9394C93.4943 31.9394 91.7423 29.633 90.4223 28.9346C90.1529 28.7774 89.8538 28.6777 89.5439 28.6418V27.0458Z" fill="#E0E0E0"/>
<path d="M85.4247 28.5602C85.4247 28.5602 87.8247 33.5642 88.2519 36.941C88.6791 40.3178 87.7719 51.8378 87.7719 55.493C87.7719 59.8995 87.7863 67.1715 87.7863 67.1715C87.7863 67.1715 85.0479 67.1715 83.1663 66.6339C81.7911 66.2427 80.1615 65.5395 79.1751 64.3611C79.1751 64.3611 78.9063 55.3418 79.4727 51.0458C80.0079 46.9658 82.1799 41.9402 82.1799 41.9402L79.3959 31.3274C79.3959 31.3274 79.5255 29.5034 81.2415 28.9922C82.8663 28.5026 85.4247 28.5602 85.4247 28.5602Z" fill="#FAFAFA"/>
<path d="M83.167 30.7441L80.3254 34.9033L82.171 41.9353C82.171 41.9353 80.4574 45.5521 79.8262 49.0537C81.5374 44.2129 83.083 42.7609 83.083 42.7609L82.0798 38.6665C82.0798 38.6665 82.4326 37.3777 82.9246 35.1793C83.4166 32.9809 83.335 31.7065 83.167 30.7441Z" fill="#EBEBEB"/>
<path d="M84.7194 34.6656C84.7194 34.4568 84.7002 34.0056 84.6642 33.4344C84.4866 30.648 84.405 28.128 85.3458 27.9144L85.4298 28.2984C84.741 28.4472 84.969 32.0448 85.0554 33.3984C85.0938 33.9816 85.1226 34.44 85.113 34.6704L84.7194 34.6656Z" fill="#344127"/>
<path d="M85.4252 27.0458C85.2501 27.0468 85.0787 27.0956 84.9293 27.187C84.78 27.2783 84.6585 27.4088 84.578 27.5642C84.3524 27.9482 83.8772 28.5938 83.8772 28.5938C83.8772 28.5938 83.8604 31.1522 84.1172 31.817C84.338 32.393 87.05 34.5266 87.05 34.5266C87.05 34.5266 86.786 36.785 86.7644 37.5746C86.7428 38.3642 88.1348 41.2274 88.3052 42.761C88.3052 42.761 88.5932 39.0362 88.3676 37.3058C87.9716 34.2938 86.0924 29.789 85.4252 28.5554V27.0458Z" fill="#EBEBEB"/>
<path d="M84.1508 43.9849H84.1172V43.7113C84.4431 43.684 84.7552 43.5678 85.0196 43.3753C84.7375 43.1874 84.4851 42.9585 84.2708 42.6961C83.8268 42.1225 82.8572 38.0305 83.1572 37.0777C83.3972 36.2785 84.1916 34.5145 84.8924 34.4857H84.9092C85.6076 34.4857 86.5244 36.1513 86.8411 36.9193C87.2203 37.8457 86.6012 42.0049 86.2076 42.6121C86.0169 42.8928 85.7847 43.1428 85.5188 43.3537C85.797 43.5255 86.1181 43.6154 86.4452 43.6129L86.4787 43.8841C86.0529 43.8913 85.6347 43.77 85.2788 43.5361C84.9525 43.7889 84.5615 43.9445 84.1508 43.9849ZM84.9212 34.7569C84.5108 34.7737 83.774 36.0817 83.438 37.1569C83.162 38.0329 84.0956 41.9929 84.506 42.5257C84.7241 42.7894 84.9824 43.017 85.2716 43.2001C85.5498 42.9931 85.7929 42.7427 85.9916 42.4585C86.3563 41.8945 86.9515 37.8697 86.5987 37.0201C86.1715 36.0001 85.334 34.7569 84.9212 34.7569Z" fill="#455A64"/>
<path d="M86.8793 43.728C86.8825 43.8077 86.8621 43.8865 86.8206 43.9545C86.779 44.0226 86.7183 44.0768 86.6459 44.1103C86.5736 44.1438 86.493 44.1551 86.4142 44.1428C86.3355 44.1305 86.2621 44.0952 86.2034 44.0412C86.1448 43.9872 86.1034 43.9171 86.0846 43.8396C86.0658 43.7621 86.0704 43.6808 86.0978 43.606C86.1252 43.5311 86.1741 43.466 86.2385 43.419C86.3028 43.3719 86.3797 43.345 86.4593 43.3416C86.5661 43.3377 86.6701 43.3761 86.7488 43.4485C86.8274 43.5208 86.8743 43.6213 86.8793 43.728Z" fill="#263238"/>
<path d="M84.5248 43.8289C84.5281 43.9086 84.5076 43.9874 84.4661 44.0555C84.4246 44.1235 84.3638 44.1777 84.2915 44.2112C84.2191 44.2447 84.1385 44.2561 84.0597 44.2438C83.981 44.2315 83.9076 44.1961 83.849 44.1421C83.7903 44.0881 83.7489 44.018 83.7301 43.9405C83.7113 43.8631 83.7159 43.7818 83.7433 43.7069C83.7707 43.632 83.8196 43.567 83.884 43.5199C83.9483 43.4729 84.0252 43.4459 84.1048 43.4425C84.1578 43.4403 84.2107 43.4485 84.2604 43.4667C84.3102 43.4849 84.3559 43.5128 84.3949 43.5487C84.434 43.5845 84.4655 43.6278 84.4878 43.6759C84.5101 43.724 84.5227 43.776 84.5248 43.8289Z" fill="#263238"/>
<path d="M86.9181 38.7218L86.6781 38.705C86.6663 38.7045 86.6548 38.7015 86.6442 38.6962C86.6336 38.691 86.6242 38.6837 86.6165 38.6747C86.6089 38.6657 86.6032 38.6552 86.5997 38.6439C86.5963 38.6326 86.5952 38.6208 86.5965 38.609C86.6421 37.841 86.6181 37.2746 86.5245 37.049C86.1165 36.0554 85.2765 34.8122 84.9093 34.8266C84.5421 34.841 83.8077 36.1538 83.4861 37.1786C83.4141 37.4186 83.4357 37.9778 83.5485 38.7386C83.552 38.7621 83.5462 38.7861 83.5323 38.8053C83.5184 38.8246 83.4975 38.8377 83.4741 38.8418L83.2341 38.8778C83.2221 38.8795 83.2099 38.8788 83.1982 38.8757C83.1865 38.8726 83.1755 38.8672 83.1659 38.8599C83.1563 38.8525 83.1483 38.8433 83.1423 38.8328C83.1362 38.8223 83.1324 38.8107 83.1309 38.7986C83.0037 37.9442 82.9893 37.3586 83.0829 37.0538C83.2557 36.5066 84.0645 34.4498 84.8805 34.4138C85.6965 34.3778 86.6781 36.3602 86.8965 36.893C87.0165 37.1858 87.0525 37.7714 86.9973 38.6354C86.9964 38.6568 86.9879 38.6772 86.9734 38.693C86.959 38.7088 86.9394 38.719 86.9181 38.7218Z" fill="#344127"/>
<path d="M77.4576 59.6401C77.8752 60.0313 78.1032 60.5569 78.5328 61.3345C78.9624 62.1121 81.0816 62.1865 81.2496 60.0001C81.3768 58.3537 80.8008 57.7969 79.6464 56.5153C78.4344 55.1665 77.9664 54.9457 78.0216 53.6953C78.0528 53.0785 78.9816 44.1505 78.9816 44.1505L82.0368 35.7337C82.0368 35.7337 83.1408 31.8001 82.5864 29.0593C82.5864 29.0593 80.6064 28.8985 79.2072 30.2953C77.5728 31.9273 75.7224 39.9961 75.3144 41.6257C74.7266 43.6906 74.4698 45.8356 74.5536 47.9809C74.6496 50.5993 74.6592 56.0713 75.0072 57.2785C75.3552 58.4857 76.332 58.5865 77.4576 59.6401Z" fill="#B16668"/>
<path d="M82.7228 28.6969C82.7228 28.6969 80.618 28.5649 79.3868 29.5729C78.1556 30.5809 77.39 33.3985 76.4852 36.2137C75.5804 39.0289 74.774 41.7721 74.4764 43.7449C74.2364 45.3961 74.7164 54.1129 74.7164 54.1129C74.7164 54.1129 76.118 54.6217 78.0212 53.6953L79.1996 44.1601L82.7276 34.5889C83.3779 32.6785 83.3762 30.6063 82.7228 28.6969Z" fill="#F0F0F0"/>
<path d="M90.9239 16.6945C92.5271 16.8601 93.8663 18.5641 93.7775 22.4305C93.7007 25.7089 92.6375 26.5105 92.0975 26.7505C91.5575 26.9905 90.5351 27.0217 89.5367 26.8537V28.6417C89.5367 28.6417 90.6887 31.1809 90.1991 32.0881C87.4655 30.9601 85.4255 28.5601 85.4255 28.5601V24.5089C85.4255 24.5089 84.7511 25.3081 83.6471 24.5761C82.5431 23.8441 82.4999 22.0273 83.1431 21.3745C83.7863 20.7217 85.1687 20.9305 85.4255 21.8305C85.4255 21.8305 86.3855 21.8065 88.1543 20.5465C89.5001 19.6265 90.4803 18.2633 90.9239 16.6945Z" fill="#B16668"/>
<path d="M89.3253 21.173C89.3305 21.2318 89.3239 21.2911 89.3059 21.3473C89.2878 21.4035 89.2587 21.4555 89.2202 21.5002C89.1817 21.545 89.1347 21.5815 89.0818 21.6078C89.029 21.634 88.9714 21.6494 88.9125 21.653C88.8226 21.661 88.7324 21.6419 88.6534 21.5984C88.5744 21.5548 88.5102 21.4886 88.469 21.4084C88.4278 21.3281 88.4115 21.2374 88.4221 21.1478C88.4327 21.0582 88.4698 20.9738 88.5286 20.9054C88.5875 20.837 88.6653 20.7877 88.7523 20.7638C88.8393 20.7399 88.9315 20.7425 89.017 20.7712C89.1025 20.7999 89.1775 20.8535 89.2324 20.9251C89.2873 20.9967 89.3197 21.083 89.3253 21.173Z" fill="#263238"/>
<path d="M89.7863 24.24L91.0871 24.6552C91.0637 24.7422 91.023 24.8235 90.9674 24.8944C90.9118 24.9652 90.8426 25.0242 90.7637 25.0676C90.6848 25.1111 90.598 25.1382 90.5084 25.1474C90.4188 25.1565 90.3283 25.1475 90.2423 25.1208C90.0679 25.0604 89.9233 24.9354 89.8384 24.7714C89.7536 24.6075 89.7349 24.4173 89.7863 24.24Z" fill="#9A4A4D"/>
<path d="M93.1918 20.1601L92.3086 19.5481C92.3457 19.4887 92.3946 19.4374 92.4522 19.3974C92.5099 19.3575 92.5751 19.3297 92.6438 19.3158C92.7125 19.3018 92.7834 19.3021 92.852 19.3164C92.9206 19.3308 92.9856 19.359 93.043 19.3993C93.1613 19.4824 93.2429 19.6079 93.2706 19.7498C93.2984 19.8916 93.2701 20.0387 93.1918 20.1601Z" fill="#263238"/>
<path d="M92.8794 21.0889C92.8803 21.1746 92.8559 21.2586 92.8094 21.3305C92.7628 21.4024 92.6962 21.4591 92.6177 21.4934C92.5393 21.5277 92.4524 21.5382 92.368 21.5236C92.2836 21.509 92.2054 21.4698 92.1431 21.4111C92.0807 21.3524 92.0371 21.2766 92.0175 21.1932C91.9979 21.1098 92.0032 21.0225 92.0328 20.9422C92.0624 20.8618 92.115 20.7919 92.1841 20.7412C92.2531 20.6905 92.3355 20.6612 92.421 20.6569C92.4795 20.655 92.5379 20.6647 92.5926 20.6854C92.6474 20.7061 92.6975 20.7374 92.7401 20.7776C92.7827 20.8177 92.8169 20.8659 92.8409 20.9194C92.8648 20.9728 92.8779 21.0304 92.8794 21.0889Z" fill="#263238"/>
<path d="M90.6641 20.8392L90.7337 23.4648L92.1161 23.0376L90.6641 20.8392Z" fill="#9A4A4D"/>
<path d="M89.5431 26.8537C88.4871 26.7169 86.3198 25.9153 85.9814 25.0561C86.1168 25.4903 86.3824 25.8723 86.7422 26.1505C87.3902 26.7073 89.5431 27.3313 89.5431 27.3313V26.8537Z" fill="#9A4A4D"/>
<path d="M107.172 37.3152L96.7366 42.2808L93.8662 54.6984L94.099 54.9456L104.018 49.956L107.405 37.5624L107.172 37.3152Z" fill="#344127"/>
<path opacity="0.35" d="M96.9718 42.5305L94.099 54.9457L93.8662 54.6985L96.7366 42.2809L96.9718 42.5305Z" fill="black"/>
<path opacity="0.25" d="M107.404 37.5624L96.9714 42.5304L94.0986 54.9456L104.018 49.956L107.404 37.5624Z" fill="black"/>
<g opacity="0.2">
<path opacity="0.2" d="M102.479 47.4312C102.575 47.6712 103.375 48.2136 104.534 48.1176L104.728 47.3976L102.479 47.4312Z" fill="black"/>
</g>
<g opacity="0.1">
<path opacity="0.1" d="M104.26 40.1065L104.347 39.6913C104.395 39.4513 103.783 39.5809 102.979 39.9601L101.443 40.6801C100.639 41.0593 99.9498 41.5537 99.9018 41.7841L99.8154 42.1993L104.26 40.1065Z" fill="black"/>
</g>
<path d="M104.894 38.1601C104.925 38.0161 104.675 38.0329 104.339 38.1985L103.732 38.4961C103.732 38.4961 103.912 37.5961 102.561 38.1841C101.21 38.7721 100.917 39.8113 100.917 39.8113L100.267 40.1353C99.9065 40.3129 99.5825 40.5769 99.5465 40.7209L99.4697 40.9849L104.843 38.4289C104.843 38.4289 104.865 38.3041 104.894 38.1601Z" fill="#37474F"/>
<path d="M104.323 39.0217C103.831 39.2449 103.624 39.3553 103.552 39.7105C103.468 40.1137 103.435 40.4065 103.435 40.4065L101.054 41.5393C101.054 41.5393 101.169 41.0257 101.205 40.8193C101.241 40.6129 101.162 40.5217 100.783 40.7041L100.634 40.2865L104.474 38.4961L104.323 39.0217Z" fill="#37474F"/>
<path d="M104.4 40.1137C104.4 40.1137 104.438 39.9265 104.486 39.6985C104.534 39.4705 103.922 39.5881 103.118 39.9673L101.58 40.6873C100.778 41.0665 100.089 41.5609 100.041 41.7913L99.9551 42.2065L104.4 40.1137Z" fill="#37474F"/>
<path d="M106.243 41.8106C106.243 41.8106 105.874 43.1738 105.778 43.517C105.682 43.8602 103.973 44.6498 103.116 44.7578C101.479 44.9618 101.295 45.317 101.688 46.4786C102.051 47.549 103.116 47.9546 104.594 47.7794C105.286 47.6978 106.243 47.0834 106.62 46.0106C107.1 44.6426 106.841 43.1786 107.03 42.3794C107.22 41.5802 106.661 41.3354 106.243 41.8106Z" fill="#B16668"/>
</svg>
